<?xml version="1.0" encoding="UTF-8"?>
<!DOCTYPE svg PUBLIC "-//W3C//DTD SVG 1.1//EN" "http://www.w3.org/Graphics/SVG/1.1/DTD/svg11.dtd">
<!-- Creator: CorelDRAW 2020 (64 Bit) -->
<svg xmlns="http://www.w3.org/2000/svg" xml:space="preserve" width="48.5482mm" height="46.564mm" version="1.1" style="shape-rendering:geometricPrecision; text-rendering:geometricPrecision; image-rendering:optimizeQuality; fill-rule:evenodd; clip-rule:evenodd"
viewBox="0 0 1171.3 1123.43"
 xmlns:xlink="http://www.w3.org/1999/xlink"
 xmlns:xodm="http://www.corel.com/coreldraw/odm/2003">
 <defs>
  <style type="text/css">
   <![CDATA[
    .str0 {stroke:#666666;stroke-width:12.06;stroke-linecap:round;stroke-linejoin:round;stroke-miterlimit:22.9256}
    .str2 {stroke:#666666;stroke-width:12.06;stroke-linecap:round;stroke-linejoin:round;stroke-miterlimit:22.9256}
    .str1 {stroke:#666666;stroke-width:12.06;stroke-linecap:round;stroke-linejoin:round;stroke-miterlimit:22.9256}
    .str4 {stroke:#666666;stroke-width:12.06;stroke-linecap:round;stroke-linejoin:round;stroke-miterlimit:22.9256;stroke-dasharray:12.063283 36.189849}
    .str3 {stroke:#666666;stroke-width:12.06;stroke-linecap:round;stroke-linejoin:round;stroke-miterlimit:22.9256;stroke-dasharray:12.063283 36.189849}
    .fil1 {fill:none}
    .fil0 {fill:#666666;fill-rule:nonzero}
   ]]>
  </style>
 </defs>
 <g id="Camada_x0020_1">
  <metadata id="CorelCorpID_0Corel-Layer"/>
  <g id="_2781134880608">
   <g>
    <path class="fil0" d="M1149.05 1109.46c0,3.33 -2.69,6.03 -6.01,6.03 -3.32,0 -6.01,-2.7 -6.01,-6.03l12.02 0zm-12.02 -1103.4l12.02 0 0 34.48 0 34.48 0 34.48 0 34.48 0 34.48 0 34.48 0 34.48 0 34.48 0 34.48 0 34.48 0 34.48 0 34.48 0 34.48 0 34.48 0 34.48 0 34.48 0 34.48 0 34.48 0 34.48 0 34.48 0 34.48 0 34.48 0 34.48 0 34.48 0 34.48 0 34.48 0 34.48 0 34.48 0 34.48 0 34.48 0 34.48 0 34.48 -12.02 0 0 -34.48 0 -34.48 0 -34.48 0 -34.48 0 -34.48 0 -34.48 0 -34.48 0 -34.48 0 -34.48 0 -34.48 0 -34.48 0 -34.48 0 -34.48 0 -34.48 0 -34.48 0 -34.48 0 -34.48 0 -34.48 0 -34.48 0 -34.48 0 -34.48 0 -34.48 0 -34.48 0 -34.48 0 -34.48 0 -34.48 0 -34.48 0 -34.48 0 -34.48 0 -34.48 0 -34.48 0 -34.48zm0 0c0,-3.33 2.69,-6.03 6.01,-6.03 3.32,0 6.01,2.7 6.01,6.03l-12.02 0z"/>
   </g>
   <g>
    <path class="fil1 str0" d="M1115.12 21.91c9.31,-5.52 18.61,-11.03 23.27,-13.79 4.65,-2.76 4.65,-2.76 8.36,-0.17 3.71,2.59 11.12,7.76 18.53,12.93"/>
   </g>
   <g>
    <path class="fil1 str1" d="M824.68 1058.64c-25.31,9.35 -75.3,27.97 -134.93,38.82 -59.64,10.86 -128.92,13.96 -190.97,13.79 -62.05,-0.17 -116.86,-3.62 -170.29,-13.61 -53.43,-10 -105.48,-26.54 -131.51,-34.81 -26.03,-8.27 -26.03,-8.27 -26.03,-8.27 0,0 0,0 1.04,-29.47 1.03,-29.47 3.1,-88.42 10.34,-140.64 7.24,-52.22 19.65,-97.72 24.99,-148.4 5.34,-50.67 3.62,-106.51 2.42,-165.63 -1.21,-59.12 -1.9,-121.51 -5,-174.25 -3.1,-52.74 -8.62,-95.83 -19.48,-140.81 -10.86,-44.98 -27.06,-91.86 -38.78,-120.82 -11.72,-28.96 -18.96,-39.99 -23.44,-46.19 -4.48,-6.2 -6.21,-7.58 -6.55,-8.27 -0.35,-0.69 0.69,-0.69 34.13,-12.75 33.43,-12.06 99.27,-36.19 132.19,-48.26 32.92,-12.07 32.92,-12.07 32.92,-12.07 0,0 0,0 14.65,10.69 14.65,10.69 43.95,32.06 82.9,44.12 38.95,12.07 87.56,14.82 137.88,4.65 50.33,-10.17 102.38,-33.26 128.4,-44.81 26.03,-11.55 26.03,-11.55 26.03,-11.55 0,0 0,0 31.54,12.75 31.54,12.76 94.62,38.26 126.16,51.02 31.54,12.75 31.54,12.75 31.54,12.75 0,0 0,0 -9.48,18.27 -9.48,18.27 -28.44,54.81 -42.74,95.49 -14.31,40.67 -23.96,85.49 -29.56,144.93 -5.6,59.44 -7.15,133.51 -6.2,200.71 0.95,67.19 4.4,127.52 12.3,210.03 7.91,82.51 20.27,187.22 26.37,239.76 6.1,52.55 5.93,52.93 5.52,53.17 -0.41,0.24 -1.06,0.32 -26.37,9.67z"/>
   </g>
   <g>
    <path class="fil1 str1" d="M116.51 80.06c-18.21,30.75 -36.42,61.5 -52.42,103.59 -16,42.09 -29.79,95.52 -39.09,132.06 -9.31,36.54 -14.13,56.19 -16.55,66.01 -2.41,9.82 -2.41,9.82 -2.41,9.82 0,0 0,0 27.75,10.86 27.75,10.86 83.25,32.58 111,43.43 27.75,10.86 27.75,10.86 27.75,10.86 0,0 0,0 3.79,-12.24 3.79,-12.24 11.37,-36.71 16.42,-51.47 5.04,-14.76 7.55,-19.79 10.06,-24.83"/>
   </g>
   <g>
    <path class="fil1 str1" d="M894.85 86.61c6.72,7.54 13.45,15.08 28.87,45.74 15.42,30.66 39.55,84.43 55.93,131.57 16.37,47.14 24.99,87.64 29.3,107.89 4.31,20.25 4.31,20.25 4.31,20.25 0,0 0,0 -27.98,10.86 -27.98,10.86 -83.96,32.57 -111.94,43.43 -27.98,10.86 -27.98,10.86 -27.98,10.86 0,0 0,0 -5.38,-18.65 -5.38,-18.65 -16.14,-55.96 -26.9,-93.27"/>
   </g>
   <g>
    <path class="fil1 str1" d="M315.75 6.98c6.25,17.88 12.5,35.77 28.81,55.22 16.31,19.46 42.68,40.48 67.5,54.62 24.82,14.13 48.09,21.37 73.85,24.39 25.76,3.02 54.03,1.81 80.66,-7.24 26.63,-9.05 51.62,-25.94 71.87,-43.09 20.25,-17.15 35.76,-34.56 46.17,-48.07 10.41,-13.51 15.7,-23.12 21,-32.73"/>
   </g>
   <g>
    <path class="fil1 str2" d="M1115.12 1101.52c9.31,5.52 18.61,11.03 23.27,13.79 4.65,2.76 4.65,2.76 8.36,0.17 3.71,-2.59 11.12,-7.76 18.53,-12.93"/>
   </g>
   <g>
    <line class="fil1 str3" x1="779.71" y1="11.46" x2="1082.71" y2= "11.46" />
   </g>
   <g>
    <line class="fil1 str4" x1="779.71" y1="1109.18" x2="1082.71" y2= "1109.18" />
   </g>
  </g>
 </g>
</svg>
