<?xml version="1.0" encoding="UTF-8" standalone="no"?>
<!-- Created with Inkscape (http://www.inkscape.org/) -->

<svg
   xmlns:dc="http://purl.org/dc/elements/1.1/"
   xmlns:cc="http://creativecommons.org/ns#"
   xmlns:rdf="http://www.w3.org/1999/02/22-rdf-syntax-ns#"
   xmlns:svg="http://www.w3.org/2000/svg"
   xmlns="http://www.w3.org/2000/svg"
   xmlns:sodipodi="http://sodipodi.sourceforge.net/DTD/sodipodi-0.dtd"
   xmlns:inkscape="http://www.inkscape.org/namespaces/inkscape"
   width="210mm"
   height="210mm"
   viewBox="0 0 210 210"
   version="1.1"
   id="svg1387"
   inkscape:version="0.92.3 (2405546, 2018-03-11)"
   sodipodi:docname="icone.svg"
   inkscape:export-filename="/media/ARQUIVOS/DESENVOLVIMENTO/SITES/palmieri/src/assets/icone.svg.png"
   inkscape:export-xdpi="599"
   inkscape:export-ydpi="599">
  <defs
     id="defs1381" />
  <sodipodi:namedview
     id="base"
     pagecolor="#ffffff"
     bordercolor="#666666"
     borderopacity="1.0"
     inkscape:pageopacity="0.0"
     inkscape:pageshadow="2"
     inkscape:zoom="0.35"
     inkscape:cx="25.714286"
     inkscape:cy="560"
     inkscape:document-units="mm"
     inkscape:current-layer="layer1"
     showgrid="false"
     inkscape:window-width="1366"
     inkscape:window-height="714"
     inkscape:window-x="0"
     inkscape:window-y="0"
     inkscape:window-maximized="1" />
  <metadata
     id="metadata1384">
    <rdf:RDF>
      <cc:Work
         rdf:about="">
        <dc:format>image/svg+xml</dc:format>
        <dc:type
           rdf:resource="http://purl.org/dc/dcmitype/StillImage" />
        <dc:title />
      </cc:Work>
    </rdf:RDF>
  </metadata>
  <g
     inkscape:label="Camada 1"
     inkscape:groupmode="layer"
     id="layer1"
     transform="translate(0,-87)">
    <g
       id="g1437"
       transform="matrix(16.251217,0,0,16.251219,1100.3198,-825.08815)">
      <path
         class="fil15"
         d="m -61.245864,56.155058 c 0.458699,0 0.906098,0.0484 1.337697,0.1397 -0.428399,0.0092 -0.878298,0.0965 -1.352597,0.262099 -0.498899,0.1753 -0.988998,0.4037 -1.473297,0.685399 -0.481199,0.281699 -0.940699,0.604099 -1.381798,0.967098 -0.437899,0.362999 -0.816298,0.726099 -1.138397,1.089098 -0.3189,0.363099 -0.563099,0.710498 -0.732699,1.042198 -0.1695,0.331799 -0.227499,0.616599 -0.174,0.854498 0.0198,0.0876 0.0789,0.2253 0.1775,0.413099 0.0985,0.1878 0.2103,0.378699 0.335299,0.572699 0.1251,0.1941 0.2538,0.363099 0.3864,0.507099 0.132499,0.1439 0.236299,0.2159 0.311399,0.2159 0.0126,0 0.0541,-0.0657 0.1247,-0.1972 0.0706,-0.1314 0.144599,-0.275399 0.222099,-0.431899 0.0775,-0.1564 0.1445,-0.3036 0.2012,-0.441299 0.0566,-0.1377 0.0898,-0.2128 0.0995,-0.2253 -0.025,0 -0.0733,0.0219 -0.1448,0.0657 -0.0715,0.0438 -0.151,0.0939 -0.2385,0.1502 -0.0875,0.0564 -0.170099,0.1065 -0.247899,0.150299 -0.0778,0.0438 -0.1292,0.0657 -0.1542,0.0657 l -0.0042,-0.0188 c -0.0282,-0.125199 0.0058,-0.294199 0.1019,-0.506999 0.0961,-0.212799 0.2301,-0.438199 0.404999,-0.675998 0.1719,-0.2379 0.3712,-0.478899 0.597999,-0.722999 0.2267,-0.244099 0.453899,-0.472599 0.684599,-0.685398 0.227499,-0.2128 0.443299,-0.3944 0.647398,-0.544599 0.204,-0.1502 0.3756,-0.2504 0.514599,-0.3005 -0.0273,0.2129 -0.0976,0.553999 -0.211199,1.023498 -0.1135,0.469499 -0.241,1.001498 -0.382699,1.596197 -0.1417,0.594599 -0.2937,1.226798 -0.4498,1.896596 -0.155999,0.669799 -0.290999,1.308198 -0.404799,1.915396 -0.116999,0.607199 -0.199599,1.157998 -0.251199,1.652497 -0.0515,0.494499 -0.0491,0.866898 0.0072,1.117298 0.0169,0.0751 0.0884,0.184699 0.214799,0.328699 0.1262,0.1439 0.2682,0.2879 0.425699,0.431799 0.1018,0.093 0.2018,0.1781 0.3,0.2555 -2.753295,-0.727499 -4.783191,-3.235094 -4.783191,-6.216988 0,-3.551393 2.878895,-6.430287 6.430288,-6.430287 z m 3.643692,1.131798 c 1.683097,1.159498 2.786595,3.099994 2.786595,5.298489 0,3.551293 -2.878995,6.430287 -6.430287,6.430287 -0.3862,0 -0.764299,-0.0341 -1.131698,-0.0993 l -0.0387,-0.1723 c -0.0873,-0.387999 -0.1349,-0.794898 -0.1431,-1.220598 -0.008,-0.425599 0.0127,-0.848098 0.0655,-1.267497 0.0497,-0.419399 0.1132,-0.832598 0.1907,-1.239398 0.0775,-0.406899 0.162699,-0.779298 0.249499,-1.117397 0.1061,0.137799 0.2142,0.256699 0.3243,0.356799 0.0977,0.1002 0.207499,0.1847 0.329399,0.253599 0.1218,0.0688 0.251599,0.1032 0.389299,0.1032 0.288,0 0.613599,-0.097 0.970498,-0.290999 0.356999,-0.1941 0.715499,-0.450699 1.078798,-0.769899 0.360099,-0.319299 0.704099,-0.682298 1.035098,-1.089197 0.327899,-0.4069 0.609099,-0.826199 0.843698,-1.258098 0.2377,-0.431899 0.410499,-0.860698 0.521299,-1.286397 0.1109,-0.4256 0.1268,-0.813699 0.048,-1.164198 -0.0548,-0.1878 -0.1827,-0.422499 -0.383699,-0.704199 -0.1895,-0.265499 -0.423699,-0.519699 -0.705199,-0.762897 z m -4.296191,5.786088 c 0.0335,0.0376 0.1014,0.1033 0.203999,0.1972 0.1024,0.0939 0.2539,0.1408 0.4542,0.1408 0.187699,0 0.415999,-0.0845 0.684698,-0.2535 0.2687,-0.169 0.546599,-0.394299 0.833799,-0.675999 0.283999,-0.281699 0.563398,-0.597798 0.835198,-0.948298 0.268499,-0.350599 0.505099,-0.704198 0.706498,-1.060998 0.2015,-0.356799 0.3511,-0.707298 0.4552,-1.051597 0.104099,-0.3443 0.127999,-0.641599 0.0717,-0.891999 -0.0085,-0.0375 -0.0278,-0.109499 -0.058,-0.215899 -0.0302,-0.1064 -0.0781,-0.2222 -0.1439,-0.347399 -0.0656,-0.1252 -0.1529,-0.2347 -0.2617,-0.3287 -0.108699,-0.0939 -0.244399,-0.1408 -0.403999,-0.1408 -0.225399,0 -0.456599,0.0156 -0.693698,0.0469 -0.237,0.0314 -0.4689,0.072 -0.701799,0.1221 -0.2328,0.0501 -0.454899,0.1064 -0.662999,0.169 -0.211299,0.0626 -0.397499,0.1252 -0.558699,0.187799 0.0892,0.0626 0.1592,0.1096 0.2101,0.1409 0.0508,0.0312 0.0805,0.0657 0.089,0.1032 0.0084,0.0376 0.0077,0.0626 -0.002,0.0751 -0.1145,0.325499 -0.2252,0.710498 -0.3317,1.154897 -0.106699,0.4444 -0.206299,0.891999 -0.298999,1.342698 -0.0927,0.450699 -0.1784,0.876298 -0.257299,1.276897 -0.079,0.400599 -0.1355,0.719899 -0.1696,0.957698 z m -1.197698,1.145498 c 0.0989,-0.450699 0.2024,-0.923298 0.3102,-1.417797 0.107799,-0.494499 0.208199,-0.967098 0.300799,-1.417797 0.0927,-0.450599 0.1851,-0.860599 0.2773,-1.229898 0.0922,-0.369399 0.181799,-0.666699 0.268899,-0.891998 0.0441,-0.1377 0.0855,-0.2879 0.124,-0.450699 0.0385,-0.1627 0.023,-0.2316 -0.0465,-0.2065 -0.0745,0.2253 -0.161,0.522599 -0.2594,0.891898 -0.0985,0.3693 -0.196199,0.769899 -0.293099,1.201798 -0.0969,0.431999 -0.1907,0.863898 -0.2813,1.295797 -0.0907,0.4318 -0.169999,0.816799 -0.237899,1.154798 -0.068,0.338099 -0.1163,0.610299 -0.1449,0.816899 -0.0287,0.206599 -0.0347,0.290999 -0.0181,0.253499 z m 0.396299,-1.201798 c 0.0911,-0.262899 0.1842,-0.572698 0.2792,-0.929498 0.095,-0.356799 0.1907,-0.710498 0.287199,-1.061098 0.0964,-0.350499 0.1835,-0.672798 0.2613,-0.966998 0.0778,-0.294199 0.1436,-0.516499 0.197399,-0.666698 0.0138,-0.0501 0.0265,-0.147 0.0379,-0.291 0.0115,-0.143999 0.0074,-0.203499 -0.0119,-0.178399 -0.0539,0.150199 -0.113199,0.359899 -0.177799,0.628998 -0.0647,0.2692 -0.1376,0.557099 -0.2189,0.863899 -0.0812,0.306699 -0.157899,0.619698 -0.230099,0.938898 -0.0721,0.319199 -0.1427,0.603999 -0.2115,0.854398 -0.0689,0.2504 -0.1202,0.453799 -0.1538,0.610299 -0.0337,0.156499 -0.0533,0.222199 -0.059,0.197199 z m 4.811891,-2.178295 c -0.1164,0.150199 -0.2884,0.359899 -0.515699,0.628999 -0.2275,0.269199 -0.476099,0.541498 -0.745899,0.816898 -0.269799,0.275499 -0.534399,0.532099 -0.793898,0.769898 -0.259499,0.2379 -0.485799,0.4006 -0.678899,0.488299 -0.0069,0.025 0.0102,0.0313 0.0512,0.0188 0.0409,-0.0126 0.09,-0.0313 0.1469,-0.0564 0.057,-0.025 0.1133,-0.0532 0.1688,-0.0845 0.0555,-0.0313 0.0993,-0.0594 0.131199,-0.0845 0.1791,-0.1502 0.3817,-0.3348 0.607799,-0.553999 0.2261,-0.219 0.444599,-0.444399 0.655399,-0.675999 0.210799,-0.231599 0.406599,-0.459999 0.587599,-0.685398 0.180899,-0.2253 0.309399,-0.4194 0.385499,-0.582098 z m -6.629387,0.150199 c 0.004,-0.0376 0.0771,-0.143899 0.2192,-0.319199 0.142099,-0.1753 0.324799,-0.378699 0.548199,-0.610299 0.223299,-0.231599 0.479699,-0.469499 0.768998,-0.713598 0.289399,-0.2441 0.583399,-0.453799 0.881898,-0.629099 0.0627,0 0.0808,0.025 0.0545,0.0751 -0.0263,0.0501 -0.0505,0.0814 -0.0728,0.0939 -0.145799,0.0751 -0.283999,0.156499 -0.414499,0.244099 -0.1305,0.0877 -0.282899,0.2035 -0.457099,0.347399 -0.1741,0.144 -0.381599,0.3349 -0.622299,0.572799 -0.240699,0.2379 -0.542699,0.550799 -0.906098,0.938898 z m 4.035592,-2.985794 c 0.449999,-0.100099 0.824298,-0.175299 1.116698,-0.225299 0.295399,-0.0501 0.538099,-0.0845 0.734098,-0.1033 0.1961,-0.0188 0.3623,-0.0313 0.498599,-0.0376 0.1332,-0.0062 0.2701,-0.0094 0.4079,-0.0094 0.0379,-0.0125 0.0761,-0.0375 0.117699,-0.0751 0.0416,-0.0375 0.0283,-0.0688 -0.0399,-0.0939 -0.359899,0 -0.707298,0.0282 -1.038898,0.0845 -0.331599,0.0564 -0.621798,0.1158 -0.876898,0.1785 -0.255099,0.0625 -0.466999,0.122 -0.635899,0.1783 -0.168799,0.0564 -0.261199,0.0908 -0.283399,0.103299 z m 0.1025,4.769791 c 0.0348,-0.0125 0.182599,-0.1346 0.443399,-0.366199 0.260899,-0.2316 0.554399,-0.513299 0.880398,-0.844999 0.326,-0.331799 0.642499,-0.691698 0.949498,-1.079798 0.3071,-0.388099 0.524199,-0.744898 0.651299,-1.070397 0.0041,-0.0375 -0.0262,-0.0469 -0.0908,-0.0282 -0.0647,0.0188 -0.113,0.0407 -0.1449,0.0658 -0.0636,0.162699 -0.182999,0.369299 -0.358199,0.619598 -0.175399,0.2505 -0.385699,0.525899 -0.631099,0.826299 -0.245399,0.300499 -0.516099,0.613398 -0.812198,0.938898 -0.296099,0.325499 -0.591899,0.638498 -0.887398,0.938998 z m -4.92769,-2.873194 c -0.032,0.0251 0.017,-0.0218 0.146699,-0.1408 0.1298,-0.1189 0.3216,-0.2817 0.575699,-0.488199 0.254,-0.2066 0.561099,-0.441299 0.921298,-0.704199 0.3603,-0.262899 0.756299,-0.519499 1.188298,-0.769898 0.431999,-0.2504 0.886798,-0.481999 1.364797,-0.694899 0.477899,-0.212699 0.962298,-0.369199 1.452997,-0.469399 0.0166,-0.0376 -0.0662,-0.0438 -0.248399,-0.0188 -0.1821,0.0251 -0.454499,0.0939 -0.817298,0.2066 -0.548999,0.175199 -1.047098,0.381799 -1.494397,0.619699 -0.4472,0.237799 -0.856499,0.491399 -1.227898,0.760498 -0.371399,0.269099 -0.708599,0.550799 -1.011798,0.845098 -0.303099,0.2941 -0.586399,0.578899 -0.849998,0.854299 z"
         id="path719"
         inkscape:connector-curvature="0"
         style="clip-rule:evenodd;fill:#edba00;fill-rule:evenodd;stroke-width:0.00999998;image-rendering:optimizeQuality;shape-rendering:geometricPrecision;text-rendering:geometricPrecision" />
    </g>
  </g>
</svg>
