<?xml version="1.0" encoding="UTF-8" standalone="no"?>
<!-- Created with Inkscape (http://www.inkscape.org/) -->

<svg
   xmlns:dc="http://purl.org/dc/elements/1.1/"
   xmlns:cc="http://creativecommons.org/ns#"
   xmlns:rdf="http://www.w3.org/1999/02/22-rdf-syntax-ns#"
   xmlns:svg="http://www.w3.org/2000/svg"
   xmlns="http://www.w3.org/2000/svg"
   xmlns:sodipodi="http://sodipodi.sourceforge.net/DTD/sodipodi-0.dtd"
   xmlns:inkscape="http://www.inkscape.org/namespaces/inkscape"
   width="210mm"
   height="75.5mm"
   viewBox="0 0 210 75.5"
   version="1.1"
   id="svg1387"
   sodipodi:docname="logo.svg"
   inkscape:version="0.92.3 (2405546, 2018-03-11)">
  <defs
     id="defs1381" />
  <sodipodi:namedview
     id="base"
     pagecolor="#ffffff"
     bordercolor="#666666"
     borderopacity="1.0"
     inkscape:pageopacity="0.0"
     inkscape:pageshadow="2"
     inkscape:zoom="0.35"
     inkscape:cx="25.714286"
     inkscape:cy="447.87694"
     inkscape:document-units="mm"
     inkscape:current-layer="layer1"
     showgrid="false"
     inkscape:window-width="1366"
     inkscape:window-height="714"
     inkscape:window-x="0"
     inkscape:window-y="0"
     inkscape:window-maximized="1" />
  <metadata
     id="metadata1384">
    <rdf:RDF>
      <cc:Work
         rdf:about="">
        <dc:format>image/svg+xml</dc:format>
        <dc:type
           rdf:resource="http://purl.org/dc/dcmitype/StillImage" />
        <dc:title></dc:title>
      </cc:Work>
    </rdf:RDF>
  </metadata>
  <g
     inkscape:label="Camada 1"
     inkscape:groupmode="layer"
     id="layer1"
     transform="translate(0,-221.5)">
    <g
       id="g1434"
       transform="matrix(5.6952784,0,0,5.6952784,453.73412,-174.57284)">
      <path
         class="fil16"
         d="m -72.250042,82.745205 c -0.2048,0 -0.3608,-0.0491 -0.468199,-0.1471 -0.1074,-0.098 -0.1612,-0.238399 -0.1612,-0.421599 V 80.45141 h 0.422299 v 1.750996 c 0,0.0775 0.0185,0.1335 0.0556,0.168 0.0369,0.0344 0.0902,0.0517 0.1591,0.0517 0.0691,0 0.122299,-0.0173 0.159399,-0.0517 0.0372,-0.0345 0.0557,-0.0905 0.0557,-0.168 V 80.45141 h 0.406799 v 1.725096 c 0,0.1832 -0.0538,0.323599 -0.161299,0.421599 -0.1074,0.098 -0.2636,0.1471 -0.468199,0.1471 z m 2.909494,-2.293795 h 0.529599 l 0.410599,1.353597 h 0.0076 V 80.45141 h 0.376099 v 2.261495 h -0.433599 l -0.506599,-1.650997 h -0.0076 v 1.650997 h -0.376099 z m 3.619393,0 h 0.422199 v 2.261495 h -0.422199 z m 2.717294,0 h 1.116698 v 0.322999 h -0.694499 v 0.629999 h 0.544899 v 0.322999 h -0.544899 v 0.985498 h -0.422199 z m 3.910792,2.293795 c -0.207099,0 -0.365799,-0.0495 -0.475799,-0.1487 -0.11,-0.099 -0.164999,-0.238999 -0.164999,-0.419999 v -1.188898 c 0,-0.180899 0.055,-0.320899 0.164999,-0.419999 0.11,-0.099 0.2687,-0.148599 0.475799,-0.148599 0.2073,0 0.366,0.0496 0.475999,0.148599 0.11,0.0991 0.165,0.2391 0.165,0.419999 v 1.188898 c 0,0.181 -0.055,0.320999 -0.165,0.419999 -0.109999,0.0992 -0.268699,0.1487 -0.475999,0.1487 z m 0,-0.323099 c 0.1459,0 0.2189,-0.0743 0.2189,-0.223 v -1.234097 c 0,-0.1486 -0.073,-0.2229 -0.2189,-0.2229 -0.145699,0 -0.218599,0.0743 -0.218599,0.2229 v 1.234097 c 0,0.1487 0.0729,0.223 0.218599,0.223 z m 2.905694,-1.970696 h 0.625399 c 0.2177,0 0.376199,0.0424 0.475999,0.127499 0.0997,0.085 0.1497,0.2159 0.1497,0.392499 v 0.139 c 0,0.2348 -0.0921,0.383399 -0.276199,0.445899 v 0.0064 c 0.102199,0.0259 0.174399,0.0786 0.216699,0.1582 0.0421,0.0798 0.0633,0.1865 0.0633,0.319999 v 0.3974 c 0,0.0646 0.0026,0.116799 0.0076,0.156599 0.0052,0.04 0.0181,0.0792 0.0385,0.118 h -0.429799 c -0.0154,-0.0366 -0.0257,-0.0711 -0.0307,-0.1035 -0.0052,-0.0323 -0.0077,-0.0905 -0.0077,-0.174299 v -0.4136 c 0,-0.103399 -0.0199,-0.175499 -0.0596,-0.216499 -0.0395,-0.0409 -0.108,-0.0614 -0.2054,-0.0614 h -0.145699 v 0.969298 h -0.4221 z m 0.575599,0.969098 c 0.0845,0 0.1478,-0.0182 0.19,-0.0549 0.0423,-0.0366 0.0633,-0.098 0.0633,-0.1841 v -0.1745 c 0,-0.0819 -0.0172,-0.141099 -0.0517,-0.177599 -0.0347,-0.0368 -0.0889,-0.055 -0.1633,-0.055 h -0.191799 v 0.646099 z m 2.951694,-0.969098 h 0.602399 l 0.2687,1.618596 h 0.0077 l 0.268499,-1.618596 h 0.602599 v 2.261495 h -0.398999 v -1.712397 h -0.0078 l -0.3068,1.712397 h -0.353399 l -0.306799,-1.712397 h -0.0077 v 1.712397 h -0.3684 z m 4.045392,0 h 1.151298 v 0.322999 h -0.729099 v 0.597599 h 0.579499 v 0.323199 h -0.579499 v 0.694599 h 0.729099 v 0.323099 h -1.151298 z m 3.930192,2.293795 c -0.204699,0 -0.359499,-0.0491 -0.464499,-0.1471 -0.104899,-0.098 -0.157399,-0.238399 -0.157399,-0.421599 v -0.1291 h 0.399199 v 0.155 c 0,0.1464 0.073,0.2197 0.218899,0.2197 0.0715,0 0.126,-0.0177 0.1629,-0.0533 0.0371,-0.0355 0.0557,-0.0931 0.0557,-0.1729 0,-0.0948 -0.0256,-0.1782 -0.0767,-0.250299 -0.0512,-0.0722 -0.1458,-0.1588 -0.283999,-0.2601 -0.1739,-0.1292 -0.2956,-0.246199 -0.3646,-0.350599 -0.0691,-0.1045 -0.103599,-0.2223 -0.103599,-0.3538 0,-0.178799 0.0538,-0.317199 0.160999,-0.415099 0.1076,-0.098 0.2637,-0.146999 0.468199,-0.146999 0.2023,0 0.3552,0.049 0.4588,0.146999 0.103599,0.0979 0.155399,0.2385 0.155399,0.421599 v 0.0937 h -0.399099 v -0.116299 c 0,-0.0775 -0.0181,-0.134 -0.0538,-0.1696 -0.0358,-0.0355 -0.0883,-0.0533 -0.1575,-0.0533 -0.140599,0 -0.210899,0.0721 -0.210899,0.2164 0,0.0818 0.0261,0.158399 0.0787,0.229499 0.0523,0.0711 0.147699,0.1572 0.285899,0.2584 0.1766,0.129299 0.2981,0.246599 0.364499,0.352099 0.0667,0.1056 0.0999,0.229499 0.0999,0.371499 0,0.1853 -0.0544,0.327499 -0.163099,0.426499 -0.1089,0.0992 -0.2668,0.1487 -0.4739,0.1487 z"
         id="path721"
         inkscape:connector-curvature="0"
         style="clip-rule:evenodd;fill:#000000;fill-rule:nonzero;stroke-width:0.00999998;image-rendering:optimizeQuality;shape-rendering:geometricPrecision;text-rendering:geometricPrecision" />
      <path
         class="fil16"
         d="m -74.017639,78.155914 c -0.1419,0 -0.275599,-0.0355 -0.401299,-0.1065 -0.1255,-0.0709 -0.2388,-0.157899 -0.339399,-0.261199 -0.1136,-0.1032 -0.2248,-0.2258 -0.3342,-0.367699 -0.0893,0.348299 -0.177199,0.732198 -0.257099,1.151497 -0.0799,0.419299 -0.1453,0.844999 -0.1964,1.277198 -0.0545,0.432199 -0.0758,0.867598 -0.0676,1.306097 0.0084,0.438699 0.0576,0.857998 0.1475,1.257998 l 0.0523,0.232099 c 0.0173,0.0775 1e-4,0.1162 -0.0514,0.1162 -0.0645,0 -0.1737,-0.0549 -0.327199,-0.1645 -0.1537,-0.1097 -0.3117,-0.238699 -0.474099,-0.387099 -0.1624,-0.1484 -0.3086,-0.296599 -0.438799,-0.444999 -0.13,-0.1484 -0.2039,-0.2613 -0.2214,-0.338799 -0.058,-0.2579 -0.0603,-0.641599 -0.0073,-1.151298 0.053,-0.509599 0.1382,-1.077198 0.258799,-1.702897 0.1173,-0.625698 0.2564,-1.283697 0.4173,-1.973896 0.160799,-0.690098 0.317399,-1.341697 0.463499,-1.954396 0.145999,-0.612899 0.277299,-1.161198 0.394399,-1.644997 0.1169,-0.483699 0.1895,-0.835298 0.217599,-1.054597 -0.143299,0.0516 -0.319999,0.154799 -0.530398,0.309499 -0.2103,0.1549 -0.4326,0.341999 -0.667199,0.561199 -0.2377,0.219399 -0.471699,0.454799 -0.705499,0.706398 -0.233499,0.2516 -0.439099,0.499899 -0.616099,0.745099 -0.180299,0.244999 -0.318299,0.477299 -0.417399,0.696599 -0.099,0.219299 -0.134099,0.393399 -0.104999,0.522598 l 0.0043,0.0192 c 0.0257,0 0.0788,-0.0225 0.158899,-0.0677 0.0802,-0.0451 0.1654,-0.0967 0.2555,-0.1549 0.0902,-0.058 0.172199,-0.1096 0.245799,-0.1547 0.0737,-0.0452 0.1234,-0.0677 0.1492,-0.0677 -0.01,0.0128 -0.0442,0.0902 -0.1027,0.2321 -0.0583,0.1419 -0.1273,0.293599 -0.207099,0.454899 -0.0799,0.1613 -0.1562,0.309599 -0.229,0.445099 -0.0726,0.1354 -0.1155,0.2032 -0.1284,0.2032 -0.0775,0 -0.184399,-0.0742 -0.320899,-0.2226 -0.1368,-0.1484 -0.2694,-0.322599 -0.398199,-0.522599 -0.1289,-0.199899 -0.2441,-0.396599 -0.3456,-0.590099 -0.101599,-0.193599 -0.162599,-0.335499 -0.182899,-0.425699 -0.0551,-0.245199 0.0047,-0.538699 0.179299,-0.880598 0.1748,-0.341799 0.4264,-0.699899 0.755099,-1.073998 0.331799,-0.374099 0.721898,-0.748198 1.173198,-1.122398 0.454299,-0.373999 0.927998,-0.706298 1.423897,-0.996598 0.499099,-0.290299 1.004198,-0.525699 1.518197,-0.706398 0.517399,-0.1805 1.006698,-0.2709 1.471097,-0.2709 0.412799,0 0.815198,0.0969 1.200497,0.2903 0.3854,0.193499 0.733699,0.422499 1.044798,0.686998 0.3143,0.2646 0.573299,0.541899 0.780599,0.832199 0.207099,0.290199 0.338999,0.532099 0.395399,0.725598 0.0813,0.361199 0.0647,0.761099 -0.0495,1.199798 -0.1143,0.438599 -0.292199,0.880498 -0.537199,1.325697 -0.241799,0.444999 -0.531499,0.877198 -0.869398,1.296398 -0.3411,0.419299 -0.695599,0.793498 -1.066798,1.122397 -0.374199,0.3291 -0.743699,0.593499 -1.111598,0.793499 -0.367799,0.199899 -0.703298,0.299899 -1.000098,0.2999 z m -0.914798,-1.586897 c 0.0344,0.0388 0.1046,0.1066 0.2101,0.2032 0.105599,0.0968 0.261599,0.1452 0.467999,0.1452 0.193499,0 0.428899,-0.087 0.705598,-0.2612 0.277,-0.1743 0.563399,-0.406399 0.859398,-0.696698 0.2927,-0.2903 0.580799,-0.615999 0.860799,-0.977199 0.276699,-0.361299 0.520499,-0.725698 0.727998,-1.093397 0.2076,-0.3677 0.3617,-0.728799 0.469099,-1.083598 0.1071,-0.354799 0.1318,-0.661299 0.0738,-0.919198 -0.0087,-0.0388 -0.0287,-0.113 -0.0597,-0.2226 -0.0311,-0.1097 -0.0806,-0.228999 -0.148199,-0.357999 -0.0679,-0.129 -0.1578,-0.242 -0.2697,-0.338599 -0.1121,-0.0968 -0.251999,-0.1452 -0.416499,-0.1452 -0.2323,0 -0.470599,0.016 -0.714899,0.0484 -0.244299,0.0321 -0.483299,0.0741 -0.723198,0.125699 -0.2399,0.0516 -0.468799,0.1098 -0.683299,0.1742 -0.217499,0.0645 -0.409499,0.129 -0.575699,0.1935 0.092,0.0645 0.1641,0.112799 0.2166,0.145199 0.0524,0.0321 0.0828,0.0677 0.0915,0.1063 0.0088,0.0388 0.0082,0.0645 -0.0018,0.0774 -0.1181,0.335599 -0.2321,0.732199 -0.342,1.190098 -0.109899,0.458099 -0.212599,0.919198 -0.307999,1.383797 -0.0955,0.464299 -0.1838,0.902998 -0.265199,1.315797 -0.0813,0.412799 -0.1396,0.741899 -0.1747,0.986898 z m -1.234298,1.180598 c 0.1019,-0.464499 0.2085,-0.951498 0.3197,-1.461097 0.1112,-0.509699 0.214399,-0.996698 0.310099,-1.460997 0.0953,-0.464599 0.1907,-0.887098 0.2857,-1.267598 0.0949,-0.380599 0.187299,-0.686898 0.277099,-0.919198 0.0454,-0.1419 0.088,-0.296699 0.1277,-0.464499 0.0396,-0.1676 0.0236,-0.238599 -0.0479,-0.212899 -0.0769,0.232299 -0.1659,0.538798 -0.2674,0.919198 -0.101399,0.380699 -0.201999,0.793498 -0.302099,1.238597 -0.0997,0.445199 -0.1964,0.890098 -0.289799,1.335298 -0.0933,0.445099 -0.1751,0.841698 -0.2452,1.190097 -0.0699,0.348299 -0.1197,0.628899 -0.1492,0.841698 -0.0296,0.2129 -0.0359,0.3 -0.0187,0.2614 z m 0.4084,-1.238598 c 0.0939,-0.270899 0.189799,-0.590298 0.287799,-0.957798 0.098,-0.367699 0.1966,-0.732198 0.295899,-1.093497 0.0994,-0.3612 0.1892,-0.693399 0.2692,-0.996598 0.0803,-0.303 0.1481,-0.532099 0.203499,-0.686899 0.0143,-0.0516 0.0272,-0.1516 0.0391,-0.3 0.0117,-0.148399 0.0076,-0.209599 -0.0125,-0.183799 -0.0552,0.1549 -0.116499,0.370999 -0.182999,0.648299 -0.0666,0.277399 -0.1418,0.573998 -0.2256,0.890098 -0.0837,0.316199 -0.162899,0.638598 -0.237099,0.967598 -0.0743,0.328999 -0.147,0.622599 -0.2181,0.880498 -0.071,0.258 -0.1237,0.467599 -0.1584,0.628899 -0.0347,0.161299 -0.0549,0.229099 -0.0608,0.203199 z m 4.95869,-2.244695 c -0.12,0.1548 -0.2972,0.370899 -0.531499,0.648299 -0.2342,0.277299 -0.490499,0.557898 -0.768499,0.841798 -0.278099,0.283799 -0.550699,0.548199 -0.818198,0.793398 -0.2673,0.245 -0.500599,0.4128 -0.699599,0.502999 -0.0071,0.0259 0.0106,0.0323 0.0527,0.0194 0.0422,-0.0129 0.0929,-0.0322 0.1515,-0.058 0.0587,-0.0259 0.1166,-0.0548 0.1739,-0.0871 0.0573,-0.0322 0.102299,-0.0613 0.135299,-0.0872 0.1845,-0.1547 0.3931,-0.345 0.626299,-0.570799 0.233,-0.2257 0.458199,-0.457999 0.675299,-0.696699 0.217299,-0.238599 0.419099,-0.473999 0.605598,-0.706298 0.1864,-0.2321 0.3188,-0.432199 0.3972,-0.599799 z m -6.831787,0.1548 c 0.0043,-0.0388 0.0795,-0.1484 0.2261,-0.3291 0.1463,-0.180499 0.334699,-0.390199 0.564899,-0.628898 0.230199,-0.2386 0.494199,-0.4837 0.792398,-0.735199 0.2982,-0.2517 0.601099,-0.467799 0.908898,-0.648399 0.0645,0 0.0832,0.0258 0.0561,0.0775 -0.0271,0.0515 -0.052,0.0839 -0.075,0.0966 -0.150199,0.0775 -0.292699,0.1613 -0.427199,0.251699 -0.134499,0.0903 -0.291499,0.2096 -0.470999,0.358 -0.179399,0.148399 -0.393299,0.345099 -0.641299,0.590099 -0.248099,0.245199 -0.559298,0.567698 -0.933898,0.967698 z m 4.158792,-3.076994 c 0.463999,-0.1031 0.849598,-0.1805 1.150798,-0.2321 0.304499,-0.0517 0.554499,-0.0871 0.756498,-0.1065 0.2022,-0.0194 0.373499,-0.0323 0.513899,-0.0386 0.1372,-0.0065 0.2784,-0.0097 0.420299,-0.0097 0.0389,-0.013 0.0785,-0.0388 0.1214,-0.0774 0.0427,-0.0388 0.029,-0.071 -0.0412,-0.0969 -0.370899,0 -0.728798,0.0291 -1.070498,0.0872 -0.341699,0.058 -0.640798,0.119199 -0.903798,0.183699 -0.262799,0.0645 -0.481199,0.1259 -0.655199,0.184 -0.173899,0.058 -0.269299,0.0934 -0.292199,0.106301 z m 0.1058,4.91539 c 0.0357,-0.0129 0.187999,-0.1387 0.456899,-0.377399 0.268799,-0.2387 0.571199,-0.528999 0.907098,-0.870899 0.335999,-0.341799 0.662299,-0.712798 0.978598,-1.112597 0.3164,-0.3999 0.540199,-0.767599 0.671199,-1.102998 0.0041,-0.0388 -0.027,-0.0485 -0.0937,-0.0291 -0.0666,0.0194 -0.1164,0.0419 -0.1493,0.0677 -0.0653,0.167799 -0.188499,0.380699 -0.368999,0.638598 -0.1807,0.258 -0.397499,0.541799 -0.650399,0.851499 -0.252899,0.309699 -0.531899,0.632099 -0.836998,0.967498 -0.305199,0.335599 -0.609999,0.657999 -0.914398,0.967698 z m -5.07809,-2.960794 c -0.033,0.0257 0.0174,-0.0226 0.1511,-0.1451 0.133699,-0.1227 0.331399,-0.290299 0.593198,-0.503199 0.2618,-0.212799 0.578299,-0.454799 0.949599,-0.725698 0.371299,-0.2709 0.779398,-0.535299 1.224497,-0.793399 0.445099,-0.257999 0.913798,-0.496699 1.406497,-0.716098 0.492399,-0.2193 0.991498,-0.3805 1.497297,-0.483699 0.0172,-0.0387 -0.0682,-0.0451 -0.255899,-0.0193 -0.1878,0.0257 -0.468699,0.0967 -0.842398,0.212699 -0.565599,0.1807 -1.078898,0.393599 -1.539897,0.638699 -0.460999,0.245099 -0.882699,0.506299 -1.265398,0.783698 -0.382699,0.2774 -0.730298,0.567699 -1.042598,0.870899 -0.312499,0.303199 -0.604399,0.596698 -0.875998,0.880498 z"
         id="path723"
         inkscape:connector-curvature="0"
         style="clip-rule:evenodd;fill:#000000;fill-rule:nonzero;stroke-width:0.00999998;image-rendering:optimizeQuality;shape-rendering:geometricPrecision;text-rendering:geometricPrecision" />
      <path
         class="fil16"
         d="m -64.479358,76.153418 c -0.0564,0.1276 -0.1481,0.334799 -0.274899,0.621899 -0.1268,0.287099 -0.2687,0.590099 -0.4254,0.909098 -0.156799,0.318899 -0.314599,0.621799 -0.473399,0.908898 -0.158599,0.287 -0.292799,0.494299 -0.402399,0.621999 -0.0329,0.0424 -0.1085,0.0372 -0.226799,-0.016 -0.1182,-0.0532 -0.2543,-0.1381 -0.4082,-0.255199 -0.153799,-0.1169 -0.311799,-0.2631 -0.473399,-0.4385 -0.161699,-0.175399 -0.296999,-0.364099 -0.406299,-0.566098 -0.0191,-0.085 -0.0251,-0.194 -0.0176,-0.327 0.0072,-0.1328 0.0198,-0.265699 0.0377,-0.398699 0.0181,-0.1328 0.0364,-0.263099 0.0557,-0.390599 0.0192,-0.1275 0.0322,-0.2233 0.0392,-0.2871 l -0.0037,-0.016 h -0.016 c -0.033,0.0426 -0.0916,0.1596 -0.1763,0.351 -0.0844,0.191299 -0.177999,0.401299 -0.280899,0.629798 -0.1026,0.2286 -0.2064,0.4413 -0.310999,0.637999 -0.1046,0.1966 -0.1934,0.3216 -0.2664,0.374799 -0.046,0.0318 -0.1265,0.0052 -0.241299,-0.0798 -0.1148,-0.0851 -0.2388,-0.1994 -0.3721,-0.3429 -0.133399,-0.143499 -0.269299,-0.310999 -0.408099,-0.502399 -0.1387,-0.191299 -0.250799,-0.382699 -0.336399,-0.573999 -0.0263,-0.116899 -0.0084,-0.332299 0.054,-0.645898 0.0625,-0.3137 0.164999,-0.637899 0.307499,-0.972898 0.1427,-0.3348 0.317599,-0.632399 0.524799,-0.892999 0.2073,-0.260499 0.449099,-0.390599 0.725599,-0.390599 0.085,0 0.187399,0.0186 0.307399,0.0558 0.1201,0.0372 0.2386,0.0798 0.355599,0.1275 0.1172,0.0479 0.2215,0.0984 0.3132,0.1516 0.0918,0.053 0.151699,0.0956 0.180199,0.127499 0.0414,0.0425 0.0732,0.101 0.0952,0.1754 0.022,0.0745 0.0361,0.1489 0.0423,0.223299 0.006,0.0744 0.0046,0.1383 -0.0048,0.1913 -0.0094,0.0532 -0.0128,0.0851 -0.0103,0.0958 0.0023,0.0106 0.0454,0.0372 0.1296,0.0798 0.0838,0.0424 0.177599,0.093 0.281099,0.151399 0.1036,0.0585 0.2025,0.1196 0.2964,0.1834 0.0941,0.0637 0.145799,0.1169 0.155499,0.1595 0.0024,0.0106 9e-4,0.0159 -0.0044,0.0159 -0.0053,0 -0.0067,0.0053 -0.0044,0.016 -0.088,0.223099 -0.150899,0.451699 -0.188599,0.685698 -0.0378,0.2339 -0.0572,0.454399 -0.0585,0.661699 -0.0012,0.2075 0.0049,0.388199 0.0182,0.542299 0.0137,0.1542 0.0274,0.263099 0.0418,0.326999 0.0047,0.0211 0.0124,0.0319 0.0232,0.0319 0.0376,-0.0214 0.119799,-0.117 0.246199,-0.287099 0.1266,-0.1701 0.2679,-0.369499 0.423799,-0.598099 0.1559,-0.2286 0.3173,-0.467699 0.484399,-0.717599 0.167,-0.249899 0.3154,-0.465099 0.444799,-0.645798 0.0165,-0.0213 0.0576,0.0079 0.1234,0.0877 0.0658,0.0798 0.0939,0.146199 0.0848,0.199299 z m -4.018092,0.924998 c 0.2462,-0.276499 0.443999,-0.531699 0.593399,-0.765598 0.1494,-0.2338 0.263399,-0.435799 0.341999,-0.605999 0.0787,-0.1701 0.1306,-0.305499 0.1558,-0.406599 0.025,-0.1009 0.0365,-0.1567 0.034,-0.1675 0,0 -0.0021,-0.0211 -0.0062,-0.0637 -0.0043,-0.0425 -0.0087,-0.0851 -0.0129,-0.127499 -0.0043,-0.0426 -0.0106,-0.0825 -0.019,-0.1196 -0.0084,-0.0373 -0.023,-0.0559 -0.0443,-0.0559 -0.1381,0 -0.280099,0.0904 -0.425499,0.271099 -0.1454,0.1807 -0.2762,0.3908 -0.392499,0.629899 -0.1164,0.2392 -0.2061,0.478399 -0.2692,0.717699 -0.0631,0.239099 -0.0803,0.422499 -0.0517,0.550099 0.0216,0.0957 0.0536,0.143599 0.0961,0.143599 z m 3.531493,-0.605999 c 0.0165,-0.0213 -0.0211,0.0477 -0.1128,0.2073 -0.0918,0.1594 -0.208799,0.348099 -0.351099,0.566099 -0.1422,0.2179 -0.293299,0.433299 -0.452799,0.645899 -0.1595,0.212499 -0.3041,0.361499 -0.433799,0.446399 -0.0057,0.0213 0.0417,0.0081 0.142499,-0.0398 0.1009,-0.0479 0.1638,-0.0877 0.1885,-0.1196 0.1838,-0.223299 0.366699,-0.496999 0.548799,-0.821398 0.1823,-0.3242 0.339199,-0.619199 0.470699,-0.884899 z m -2.407795,-0.637898 c 0.0141,-0.0319 -0.0073,0.0027 -0.0645,0.1036 -0.057,0.100999 -0.1406,0.225899 -0.2506,0.374699 -0.110099,0.1489 -0.231499,0.305799 -0.364599,0.470599 -0.1331,0.1647 -0.267399,0.300299 -0.402899,0.406599 0.0024,0.0106 0.0177,0.008 0.0459,-0.0081 0.0283,-0.0158 0.0642,-0.0345 0.1071,-0.0558 0.0432,-0.0211 0.085,-0.0477 0.125599,-0.0796 0.0407,-0.0319 0.0693,-0.0585 0.0858,-0.0798 0.0881,-0.1276 0.1555,-0.218 0.2021,-0.271 0.0466,-0.0532 0.0892,-0.1117 0.128,-0.1756 0.0389,-0.0637 0.0846,-0.143499 0.137599,-0.239099 0.0529,-0.0957 0.1363,-0.2445 0.2505,-0.446498 z m -2.168196,0.287099 c 0.0471,-0.0745 0.1112,-0.191499 0.1923,-0.350999 0.0811,-0.1594 0.173499,-0.326899 0.277599,-0.502299 0.1041,-0.1754 0.2228,-0.345499 0.3557,-0.510299 0.133099,-0.1647 0.280499,-0.289699 0.442099,-0.374799 -0.1984,0.0639 -0.3679,0.172799 -0.508599,0.326999 -0.1408,0.1541 -0.2632,0.318999 -0.3673,0.494399 -0.103999,0.1754 -0.187499,0.348099 -0.250199,0.518299 -0.0627,0.1701 -0.11,0.302899 -0.1416,0.398699 z m 0.2393,0 c 0.0398,-0.1064 0.0962,-0.234099 0.169099,-0.382899 0.0727,-0.1488 0.1562,-0.297599 0.2503,-0.446399 0.0942,-0.1488 0.198599,-0.2871 0.313399,-0.414699 0.1149,-0.1276 0.2318,-0.2339 0.3508,-0.319 -0.1131,0.0639 -0.2264,0.1516 -0.3394,0.2633 -0.1131,0.1115 -0.217399,0.239099 -0.312599,0.382699 -0.0953,0.1435 -0.1808,0.294999 -0.2566,0.454499 -0.0758,0.1594 -0.134199,0.313499 -0.174999,0.462499 z m 2.291295,-0.590199 c 0.0091,-0.0531 -0.0034,-0.0266 -0.0379,0.0798 -0.0347,0.1064 -0.0758,0.2658 -0.1237,0.478299 -0.0479,0.2128 -0.0968,0.467899 -0.146699,0.765599 -0.05,0.297599 -0.087,0.605999 -0.111,0.924898 0.0049,0.0213 0.013,0.0106 0.0247,-0.0319 0.0116,-0.0424 0.0263,-0.0956 0.0439,-0.1595 0.0175,-0.0638 0.0372,-0.130199 0.0588,-0.199199 0.0216,-0.0692 0.0395,-0.1198 0.0536,-0.1516 0.0012,-0.0425 0.0081,-0.1887 0.021,-0.438599 0.013,-0.2498 0.0854,-0.672299 0.217299,-1.267798 z"
         id="path725"
         inkscape:connector-curvature="0"
         style="clip-rule:evenodd;fill:#000000;fill-rule:nonzero;stroke-width:0.00999998;image-rendering:optimizeQuality;shape-rendering:geometricPrecision;text-rendering:geometricPrecision" />
      <path
         class="fil16"
         d="m -61.990463,76.153418 c -0.0564,0.1276 -0.1502,0.337499 -0.281099,0.629999 -0.1309,0.292299 -0.2742,0.600499 -0.4298,0.924898 -0.155699,0.324199 -0.314999,0.632599 -0.477799,0.924898 -0.162699,0.2924 -0.298899,0.502299 -0.408499,0.629999 -0.0331,0.0424 -0.1086,0.0371 -0.226799,-0.016 -0.1184,-0.0532 -0.2545,-0.1383 -0.408299,-0.2552 -0.1538,-0.116899 -0.3117,-0.263099 -0.4733,-0.438499 -0.161799,-0.175399 -0.297199,-0.364199 -0.406499,-0.566199 -0.0347,-0.201999 -0.0301,-0.465099 0.0139,-0.789298 0.044,-0.324299 0.0996,-0.656599 0.1665,-0.996798 0.067,-0.340099 0.1394,-0.656399 0.2171,-0.948898 0.0777,-0.292299 0.134299,-0.502299 0.169399,-0.629799 0.0316,-0.0958 0.0785,-0.241899 0.1404,-0.438599 0.0622,-0.1966 0.1327,-0.414599 0.211899,-0.653799 0.0792,-0.239299 0.1576,-0.481099 0.2355,-0.725598 0.0778,-0.2446 0.1526,-0.467899 0.2242,-0.669899 0.0715,-0.201999 0.129399,-0.369299 0.173999,-0.502199 0.0444,-0.133 0.0722,-0.199399 0.0828,-0.199399 0.0827,-0.0106 0.173,0.0132 0.271299,0.0718 0.0981,0.0585 0.1845,0.1355 0.2593,0.2313 0.0746,0.0956 0.1287,0.1939 0.1619,0.294999 0.0335,0.1009 0.0371,0.1886 0.0114,0.2631 -0.1103,0.265699 -0.2396,0.624599 -0.3878,1.076398 -0.148199,0.451899 -0.281499,0.946198 -0.399899,1.483197 -0.1185,0.536799 -0.208899,1.092398 -0.271199,1.666296 -0.0621,0.574099 -0.069,1.111098 -0.0204,1.610697 0.0047,0.0213 0.0125,0.0319 0.0231,0.0319 0.0377,-0.0212 0.119399,-0.1196 0.244599,-0.294999 0.1253,-0.1754 0.2679,-0.38 0.428099,-0.613899 0.1599,-0.2339 0.3257,-0.478499 0.496799,-0.733699 0.1711,-0.254999 0.3216,-0.472999 0.450999,-0.653698 0.0163,-0.0213 0.0574,0.0079 0.1233,0.0877 0.0658,0.0798 0.094,0.146199 0.0849,0.199298 z m -1.490797,-4.146292 c 0.0141,-0.0319 -0.0044,0.0159 -0.0556,0.1436 -0.0509,0.1275 -0.1166,0.3083 -0.196799,0.542199 -0.0804,0.2339 -0.1696,0.499599 -0.2673,0.797298 -0.0978,0.2977 -0.1918,0.600699 -0.281899,0.908999 -0.0902,0.308399 -0.1688,0.608698 -0.2359,0.900998 -0.0671,0.292299 -0.1153,0.539599 -0.1441,0.741598 0.0047,0.0213 0.0156,0.0106 0.0326,-0.0319 0.017,-0.0426 0.0369,-0.0958 0.0598,-0.159499 0.0229,-0.0638 0.0457,-0.1275 0.0686,-0.1913 0.0229,-0.0639 0.0402,-0.1169 0.0517,-0.1595 0.0291,-0.201999 0.0814,-0.430599 0.1569,-0.685798 0.0755,-0.2552 0.159499,-0.531499 0.251899,-0.829199 0.0926,-0.297699 0.1896,-0.611398 0.2909,-0.940898 0.101199,-0.329699 0.190999,-0.675198 0.269199,-1.036598 z m -0.046,0.717699 c 0.0059,-0.0213 -0.0075,0.0132 -0.0404,0.1035 -0.0329,0.0905 -0.0738,0.215399 -0.123,0.374799 -0.0492,0.1595 -0.106899,0.340199 -0.173199,0.542199 -0.0662,0.202 -0.1285,0.409299 -0.187,0.621999 -0.0585,0.212599 -0.114,0.414599 -0.166699,0.605998 -0.0526,0.1913 -0.0847,0.3561 -0.0961,0.4944 0.0023,0.0106 0.0086,0.0026 0.0185,-0.024 0.01,-0.0266 0.0233,-0.0611 0.0404,-0.1035 0.017,-0.0426 0.0308,-0.0879 0.0414,-0.1356 0.0106,-0.0479 0.0187,-0.0824 0.0244,-0.1038 0.0573,-0.265699 0.1556,-0.608599 0.295,-1.028498 0.1394,-0.419999 0.261799,-0.869198 0.366699,-1.347497 z"
         id="path727"
         inkscape:connector-curvature="0"
         style="clip-rule:evenodd;fill:#000000;fill-rule:nonzero;stroke-width:0.00999998;image-rendering:optimizeQuality;shape-rendering:geometricPrecision;text-rendering:geometricPrecision" />
      <path
         class="fil16"
         d="m -55.084777,76.153418 c -0.0565,0.1276 -0.150199,0.337499 -0.281099,0.629999 -0.1309,0.292299 -0.2743,0.600499 -0.429799,0.924898 -0.1557,0.324199 -0.3149,0.632599 -0.477799,0.924898 -0.1627,0.2924 -0.2989,0.502299 -0.4085,0.629999 -0.0331,0.0424 -0.108599,0.0371 -0.226799,-0.016 -0.1182,-0.0532 -0.2545,-0.1383 -0.408299,-0.2552 -0.1538,-0.116899 -0.3117,-0.263099 -0.473299,-0.438499 -0.1618,-0.175399 -0.2972,-0.364199 -0.4065,-0.566199 -0.0274,-0.0743 -0.0262,-0.199399 0.0033,-0.374799 0.0299,-0.175399 0.0739,-0.369399 0.1324,-0.581999 0.0585,-0.212599 0.1258,-0.433299 0.202,-0.661798 0.0761,-0.2286 0.1418,-0.433299 0.196699,-0.613999 -0.175099,0.308399 -0.332699,0.576799 -0.472599,0.805398 -0.139999,0.2286 -0.266899,0.443799 -0.381099,0.645799 -0.114,0.202 -0.213299,0.398699 -0.297899,0.590099 -0.0845,0.191299 -0.1601,0.398599 -0.2268,0.621899 -0.0282,0.0637 -0.0619,0.0797 -0.1008,0.0479 -0.0451,-0.0106 -0.112499,-0.0506 -0.202299,-0.1196 -0.09,-0.0692 -0.1848,-0.1596 -0.2844,-0.2712 -0.0996,-0.111699 -0.192599,-0.241799 -0.279299,-0.390599 -0.0864,-0.1489 -0.1544,-0.308399 -0.2031,-0.478499 -0.0274,-0.0743 -0.0262,-0.1994 0.0033,-0.374799 0.0299,-0.1754 0.0732,-0.372099 0.1305,-0.589999 0.0573,-0.218 0.124,-0.441299 0.2002,-0.669699 0.0763,-0.228599 0.141799,-0.433199 0.196699,-0.614098 -0.175099,0.308399 -0.344599,0.629998 -0.508399,0.964898 -0.163999,0.334799 -0.311899,0.669798 -0.443799,1.004698 -0.1322,0.334799 -0.252299,0.651098 -0.360799,0.948698 -0.1084,0.297799 -0.1907,0.558299 -0.2468,0.781598 -0.0094,0.053 -0.0758,0.053 -0.199399,0 -0.1237,-0.0532 -0.2629,-0.1409 -0.417899,-0.263299 -0.1552,-0.1222 -0.3141,-0.2737 -0.476999,-0.454399 -0.163,-0.1808 -0.2884,-0.3721 -0.3764,-0.574099 0.0442,-0.2765 0.094,-0.539599 0.1494,-0.789499 0.0554,-0.249699 0.1243,-0.499599 0.2062,-0.749498 0.082,-0.2497 0.170199,-0.507499 0.264599,-0.773299 0.0943,-0.265899 0.1972,-0.552999 0.308699,-0.861198 0.0141,-0.0318 0.0626,-0.0292 0.1453,0.008 0.0828,0.0371 0.1696,0.093 0.2609,0.1674 0.0911,0.0744 0.169199,0.162099 0.234599,0.263199 0.0651,0.1009 0.0903,0.1886 0.0751,0.2631 -0.0303,0.148799 -0.0623,0.313599 -0.0961,0.494299 -0.0338,0.180699 -0.067,0.364199 -0.0995,0.550199 -0.0326,0.186099 -0.0611,0.366799 -0.0855,0.542198 -0.0242,0.1754 -0.0435,0.3269 -0.0571,0.4545 0.0048,0.0213 0.0125,0.0319 0.023,0.0319 0.236099,-0.510299 0.515199,-1.041798 0.837398,-1.594697 0.322199,-0.552899 0.647999,-1.041998 0.977698,-1.467097 0.0141,-0.0319 0.0736,-0.016 0.1782,0.0477 0.104699,0.0639 0.216799,0.148999 0.336499,0.255199 0.1196,0.1064 0.2313,0.2127 0.334799,0.318899 0.1038,0.1064 0.1603,0.1809 0.1699,0.2233 0.0023,0.0106 0.001,0.016 -0.0043,0.016 -0.0053,0 -0.0069,0.0053 -0.0045,0.0159 -0.1915,0.425299 -0.344399,0.831998 -0.459299,1.219897 -0.1146,0.3882 -0.1958,0.736299 -0.2434,1.044698 l 0.046,-0.0798 c 0.1387,-0.2339 0.2662,-0.4466 0.3827,-0.637899 0.116299,-0.1914 0.235199,-0.372099 0.356399,-0.542199 0.1213,-0.1701 0.247799,-0.340199 0.379699,-0.510299 0.1317,-0.1702 0.28,-0.361399 0.444899,-0.574199 0.0141,-0.0318 0.0734,-0.0158 0.1782,0.0479 0.1047,0.0638 0.216899,0.1489 0.336499,0.255199 0.1196,0.1064 0.2311,0.2126 0.334799,0.3189 0.1037,0.1064 0.1603,0.180699 0.1699,0.223299 0.0023,0.0106 8e-4,0.0159 -0.0045,0.0159 -0.0052,0 -0.0067,0.0053 -0.0042,0.016 -0.260599,0.637899 -0.406899,1.169398 -0.438799,1.594697 -0.0319,0.425299 -0.0187,0.744199 0.0398,0.956798 0.0048,0.0213 0.0125,0.0319 0.0232,0.0319 0.0376,-0.0212 0.1193,-0.1196 0.244499,-0.294999 0.1254,-0.1754 0.2681,-0.38 0.428,-0.613899 0.159999,-0.2339 0.325699,-0.478499 0.496899,-0.733699 0.171299,-0.254999 0.321599,-0.472999 0.450999,-0.653698 0.0164,-0.0213 0.0576,0.0079 0.123199,0.0877 0.066,0.0798 0.0941,0.146199 0.085,0.199299 z m -4.72079,-1.419397 c 0.0141,-0.0319 -0.0336,0.04 -0.1431,0.2154 -0.1093,0.175399 -0.2422,0.387999 -0.398499,0.637898 -0.1566,0.2499 -0.3153,0.512999 -0.476399,0.789299 -0.161,0.276499 -0.2864,0.499799 -0.3755,0.669898 -0.0061,0.0211 0.0267,-0.0107 0.098,-0.0958 0.0712,-0.0851 0.1167,-0.1541 0.1367,-0.2073 0.1305,-0.2233 0.295899,-0.515599 0.496399,-0.876998 0.2006,-0.3616 0.421399,-0.738999 0.662399,-1.132397 z m 2.348495,0.940998 c 0.0117,-0.0425 -0.0029,-0.0133 -0.0441,0.0877 -0.041,0.101 -0.0914,0.255099 -0.1511,0.462399 -0.0597,0.2073 -0.121099,0.454599 -0.183999,0.741599 -0.0631,0.287099 -0.1131,0.584698 -0.15,0.893098 0.0049,0.0213 0.0135,0.0132 0.0265,-0.024 0.0129,-0.0371 0.0286,-0.085 0.0476,-0.1435 0.0186,-0.0585 0.0393,-0.1196 0.0623,-0.1833 0.0227,-0.0638 0.0412,-0.111699 0.0553,-0.143599 0.0118,-0.0426 0.0327,-0.1861 0.0628,-0.430599 0.0299,-0.2446 0.121599,-0.664399 0.274699,-1.259798 z m -4.135492,-1.227897 c 0.0142,-0.032 0.0099,-0.016 -0.0132,0.0478 -0.0227,0.0637 -0.0536,0.1514 -0.0922,0.2631 -0.0387,0.1116 -0.0817,0.239299 -0.129199,0.382799 -0.0474,0.1435 -0.0921,0.2763 -0.1336,0.398599 -0.0415,0.1223 -0.0741,0.2259 -0.0974,0.311 -0.0234,0.085 -0.0363,0.122199 -0.0387,0.1116 0.047,-0.0745 0.0873,-0.1435 0.1208,-0.2073 0.0335,-0.0637 0.068,-0.1461 0.1038,-0.2472 0.0357,-0.100899 0.0751,-0.233899 0.1176,-0.398699 0.0427,-0.164699 0.0968,-0.385399 0.162099,-0.661699 z m 0.0121,0.478299 c 0.0057,-0.0213 -0.0026,0 -0.0256,0.0638 -0.0229,0.0639 -0.0537,0.1516 -0.0924,0.2631 -0.0386,0.1117 -0.079,0.239299 -0.121199,0.382899 -0.042,0.1435 -0.0819,0.2736 -0.1194,0.390599 -0.0375,0.1169 -0.0679,0.218 -0.0914,0.303 -0.0233,0.0851 -0.0363,0.1223 -0.0386,0.1117 0.0693,-0.1169 0.1428,-0.2871 0.2202,-0.510399 0.0773,-0.2233 0.166699,-0.558099 0.268399,-1.004699 z m 2.344896,-0.3508 c 0.0118,-0.0426 -0.0029,-0.0132 -0.0439,0.0877 -0.041,0.1011 -0.0947,0.2526 -0.1609,0.454599 -0.0662,0.202 -0.1341,0.443799 -0.2037,0.725499 -0.0695,0.281799 -0.122799,0.576799 -0.159699,0.885198 0.0047,0.0211 0.0137,0.0132 0.0266,-0.024 0.0128,-0.0373 0.0292,-0.0824 0.0491,-0.1356 0.0199,-0.0532 0.0414,-0.111599 0.0643,-0.175399 0.0228,-0.0638 0.0413,-0.1116 0.0554,-0.1435 0.0117,-0.0425 0.0352,-0.186 0.0706,-0.430599 0.0354,-0.2445 0.1362,-0.659199 0.3022,-1.243898 z m 1.617496,0.526199 c 0.0141,-0.0318 -0.0401,0.0346 -0.162499,0.1994 -0.1224,0.1648 -0.2682,0.366799 -0.437799,0.605999 -0.1695,0.239199 -0.3412,0.491699 -0.515299,0.757498 -0.1741,0.2659 -0.3059,0.483699 -0.3952,0.653799 -0.0059,0.0213 0.0269,-0.0105 0.098,-0.0956 0.0714,-0.0851 0.1169,-0.1543 0.1369,-0.2073 0.1566,-0.201999 0.341399,-0.478499 0.554999,-0.829298 0.213499,-0.350799 0.453799,-0.712299 0.720898,-1.084498 z m 2.060996,1.435297 c 0.0166,-0.0213 -0.0211,0.0479 -0.1127,0.2073 -0.0918,0.1596 -0.208799,0.348199 -0.351099,0.566199 -0.1425,0.217899 -0.293299,0.433199 -0.452999,0.645799 -0.1593,0.212699 -0.303899,0.361499 -0.433599,0.446599 -0.006,0.0212 0.0416,0.0079 0.1425,-0.04 0.100899,-0.0477 0.163599,-0.0877 0.188499,-0.1195 0.1836,-0.2233 0.3665,-0.496999 0.548799,-0.821198 0.1822,-0.3244 0.339099,-0.619399 0.470599,-0.885199 z"
         id="path729"
         inkscape:connector-curvature="0"
         style="clip-rule:evenodd;fill:#000000;fill-rule:nonzero;stroke-width:0.00999998;image-rendering:optimizeQuality;shape-rendering:geometricPrecision;text-rendering:geometricPrecision" />
      <path
         class="fil16"
         d="m -52.787081,76.153418 c -0.0564,0.1276 -0.1501,0.337499 -0.281,0.629999 -0.1307,0.292299 -0.274299,0.600499 -0.429799,0.924898 -0.1558,0.324199 -0.314999,0.632599 -0.477799,0.924898 -0.1626,0.2924 -0.298899,0.502299 -0.408499,0.629999 -0.0329,0.0424 -0.1086,0.0371 -0.2267,-0.016 -0.118299,-0.0532 -0.254499,-0.1383 -0.408399,-0.2552 -0.1538,-0.116899 -0.311599,-0.263099 -0.473399,-0.438499 -0.1617,-0.175399 -0.297199,-0.364199 -0.406299,-0.566199 -0.0169,-0.170099 0.0044,-0.417199 0.0645,-0.741498 0.0598,-0.324299 0.135699,-0.672499 0.227499,-1.044598 0.0917,-0.372099 0.1938,-0.733498 0.3064,-1.084298 0.112299,-0.350899 0.213699,-0.632599 0.303999,-0.845298 0.0143,-0.0319 0.0629,-0.0399 0.1462,-0.0238 0.0833,0.0158 0.175599,0.0477 0.276599,0.0956 0.1013,0.0479 0.1956,0.1009 0.2831,0.159399 0.0876,0.0586 0.136199,0.109 0.145899,0.1516 0.0024,0.0106 9e-4,0.0159 -0.0045,0.0159 -0.0053,0 -0.0068,0.0053 -0.0044,0.016 -0.088,0.2233 -0.167699,0.507499 -0.238799,0.853098 -0.0711,0.3455 -0.131,0.693699 -0.1795,1.044598 -0.0488,0.3508 -0.078,0.669799 -0.0878,0.956798 -0.0099,0.2871 -0.003,0.483799 0.021,0.589999 0.0047,0.0213 0.0126,0.0319 0.0232,0.0319 0.0376,-0.0212 0.1193,-0.1196 0.2446,-0.294999 0.1251,-0.1754 0.267899,-0.38 0.427899,-0.613899 0.1602,-0.2339 0.325699,-0.478499 0.496899,-0.733699 0.1711,-0.254999 0.321499,-0.472999 0.450999,-0.653698 0.0164,-0.0213 0.0576,0.0079 0.1234,0.0877 0.0656,0.0798 0.094,0.146199 0.0847,0.199299 z m -0.920598,-4.305791 c -0.0412,0.0532 -0.0971,0.135599 -0.1677,0.247199 -0.0705,0.1117 -0.1502,0.218 -0.2393,0.319 -0.0888,0.100999 -0.178199,0.188699 -0.267599,0.263099 -0.0896,0.0745 -0.1675,0.1063 -0.2338,0.0956 0.0563,-0.2231 0.1114,-0.438499 0.1659,-0.645799 0.0542,-0.207299 0.1102,-0.419899 0.1675,-0.637899 0.0571,-0.217999 0.114099,-0.449199 0.170799,-0.693698 0.0567,-0.2446 0.1142,-0.520899 0.1723,-0.829298 0.0036,-0.0318 0.0632,-0.0265 0.179,0.0161 0.115899,0.0424 0.238099,0.1009 0.366499,0.1754 0.1283,0.0743 0.243299,0.1488 0.345099,0.2233 0.1018,0.0743 0.1404,0.127499 0.1158,0.159399 -0.1859,0.3083 -0.324699,0.542199 -0.416399,0.701599 -0.0918,0.1595 -0.1585,0.276499 -0.2002,0.350999 -0.0417,0.0743 -0.0702,0.1248 -0.0855,0.1514 -0.0153,0.0266 -0.0395,0.0611 -0.0724,0.1036 z m -1.105798,2.599495 c 0.0117,-0.0426 -0.0118,0.0185 -0.0704,0.183399 -0.0586,0.1648 -0.124,0.358699 -0.1959,0.581999 -0.072,0.2233 -0.139799,0.430599 -0.203099,0.621999 -0.0633,0.191299 -0.0962,0.281599 -0.0985,0.271099 0.0471,-0.0745 0.0909,-0.151499 0.1314,-0.231299 0.0406,-0.0798 0.0844,-0.1807 0.131199,-0.3029 0.0469,-0.122399 0.0932,-0.271199 0.1389,-0.446599 0.0455,-0.175399 0.101,-0.401399 0.1664,-0.677698 z m 0.0933,0.414599 c 10e-4,-0.0426 -0.0251,0.0186 -0.0783,0.183299 -0.0533,0.1649 -0.1126,0.3508 -0.1776,0.558299 -0.0648,0.2073 -0.1249,0.401299 -0.18,0.581999 -0.0551,0.1807 -0.0837,0.2658 -0.0861,0.2552 0.0694,-0.1169 0.153499,-0.2978 0.252799,-0.542199 0.0991,-0.2446 0.1888,-0.590199 0.269201,-1.036598 z m 0.923298,-4.544991 c 0.0012,-0.0425 -0.0197,0.0186 -0.0623,0.183399 -0.0427,0.1647 -0.0939,0.3509 -0.1537,0.558099 -0.0596,0.2073 -0.115,0.3988 -0.1658,0.574199 -0.051,0.1754 -0.0776,0.2578 -0.0801,0.2472 0.0695,-0.1171 0.143799,-0.2951 0.222699,-0.534299 0.0792,-0.2392 0.1588,-0.581999 0.2392,-1.028598 z m 0.510899,6.171487 c 0.0166,-0.0211 -0.0211,0.0479 -0.1126,0.2075 -0.0919,0.1594 -0.2088,0.348099 -0.351299,0.565999 -0.1423,0.217999 -0.2932,0.433199 -0.452799,0.645999 -0.1594,0.212499 -0.3041,0.361399 -0.4336,0.446399 -0.0061,0.0213 0.0415,0.0079 0.1425,-0.0398 0.1007,-0.0479 0.1635,-0.0877 0.1882,-0.1197 0.183899,-0.2232 0.366799,-0.496999 0.548899,-0.821198 0.182399,-0.3243 0.339099,-0.619299 0.470699,-0.885199 z"
         id="path731"
         inkscape:connector-curvature="0"
         style="clip-rule:evenodd;fill:#000000;fill-rule:nonzero;stroke-width:0.00999998;image-rendering:optimizeQuality;shape-rendering:geometricPrecision;text-rendering:geometricPrecision" />
      <path
         class="fil16"
         d="m -50.370886,75.05312 c 0.055,0.2445 0.0406,0.475699 -0.0433,0.693699 -0.084,0.2179 -0.2057,0.409299 -0.365199,0.574099 -0.1597,0.164699 -0.3451,0.297699 -0.556399,0.398599 -0.2111,0.101 -0.417599,0.1516 -0.619599,0.1516 -0.0745,0 -0.1484,-0.0213 -0.2217,-0.0639 -0.0348,0.223299 -0.0331,0.467899 0.0054,0.733598 0.024,0.1064 0.0703,0.1941 0.139,0.2631 0.0688,0.0691 0.1297,0.1038 0.1828,0.1038 0.223299,0 0.432299,-0.04 0.626999,-0.1198 0.194599,-0.0796 0.392899,-0.202 0.595198,-0.366599 0.2022,-0.1649 0.4095,-0.3775 0.621999,-0.637899 0.2126,-0.2605 0.437699,-0.571499 0.675199,-0.932998 0.0262,0.0213 0.0604,0.0558 0.1032,0.1037 0.0426,0.0477 0.0699,0.0983 0.0818,0.151499 0.0023,0.0105 0.0016,0.0186 -0.0025,0.0239 -0.0041,0.0053 -0.005,0.0132 -0.0027,0.0239 -0.145399,0.393299 -0.307999,0.757499 -0.487799,1.092398 -0.179999,0.334799 -0.371999,0.627199 -0.576398,0.877098 -0.2042,0.2499 -0.4204,0.446399 -0.648599,0.589999 -0.2282,0.1435 -0.459199,0.2153 -0.693099,0.2153 -0.085,0 -0.214999,-0.0345 -0.389999,-0.1037 -0.1751,-0.069 -0.360499,-0.1727 -0.556299,-0.3108 -0.196,-0.138299 -0.382299,-0.316299 -0.558699,-0.534299 -0.176799,-0.218099 -0.304999,-0.481199 -0.384899,-0.789398 -0.0431,-0.1914 -0.0157,-0.459799 0.0819,-0.805298 0.0977,-0.3456 0.240499,-0.691099 0.428699,-1.036598 0.1881,-0.3455 0.402299,-0.645999 0.642599,-0.900998 0.240199,-0.2552 0.481599,-0.3881 0.723698,-0.3987 0.0107,0 0.0508,0.0132 0.1204,0.0398 0.0698,0.0266 0.15,0.0638 0.2405,0.1117 0.0905,0.0479 0.182799,0.1037 0.276899,0.1674 0.0941,0.0638 0.1772,0.138299 0.249599,0.223299 0.0651,0.0531 0.1278,0.1196 0.1884,0.1992 0.0603,0.0798 0.1013,0.1675 0.1229,0.263299 z m -0.737599,-0.159499 c -0.133399,0.0213 -0.296599,0.170099 -0.489599,0.446599 -0.193099,0.276299 -0.351599,0.611199 -0.475699,1.004498 0.145,-0.0637 0.2816,-0.1541 0.409399,-0.271 0.1278,-0.116999 0.2354,-0.241799 0.3223,-0.374799 0.0871,-0.1329 0.154399,-0.270999 0.201899,-0.414599 0.0474,-0.1435 0.058,-0.2738 0.0317,-0.390699 z m 1.452297,1.706296 c 0.0163,-0.0213 -0.0154,0.0266 -0.0953,0.1435 -0.0799,0.117 -0.1994,0.260499 -0.3577,0.430599 -0.158399,0.1701 -0.352199,0.348199 -0.581499,0.534299 -0.229299,0.186 -0.491399,0.332199 -0.786498,0.438499 0.0023,0.0106 0.0201,0.0185 0.0533,0.024 0.033,0.0053 0.0736,0.0079 0.1213,0.0079 0.0479,0 0.0919,-0.0053 0.131999,-0.016 0.0401,-0.0106 0.0697,-0.0212 0.0885,-0.0319 0.1085,-0.085 0.2169,-0.170099 0.3254,-0.255199 0.108499,-0.085 0.221899,-0.1833 0.340299,-0.295 0.1184,-0.1116 0.239399,-0.246999 0.362999,-0.406599 0.1237,-0.1594 0.2561,-0.350799 0.3972,-0.574099 z m -3.405093,-0.462499 c 0.1776,-0.297599 0.365499,-0.608599 0.563599,-0.932798 0.1981,-0.324299 0.443399,-0.592799 0.735899,-0.805398 0.0081,-0.0106 -0.0051,-0.0106 -0.04,0 -0.0348,0.0106 -0.0737,0.0266 -0.1167,0.0479 -0.0432,0.0212 -0.087,0.0504 -0.1318,0.0877 -0.0448,0.0372 -0.0796,0.0717 -0.1043,0.1036 -0.253299,0.2446 -0.439399,0.481099 -0.558098,0.709699 -0.1186,0.228599 -0.2349,0.491699 -0.3486,0.789297 z m 0.1582,0.2073 c 0.0507,-0.1062 0.1122,-0.2339 0.1849,-0.382699 0.0729,-0.1488 0.153899,-0.2976 0.242599,-0.4464 0.0889,-0.148999 0.1867,-0.292499 0.293899,-0.430599 0.1071,-0.138299 0.2148,-0.249899 0.3234,-0.334999 -0.1027,0.0638 -0.2099,0.1541 -0.3219,0.271099 -0.111799,0.1171 -0.214899,0.2499 -0.308899,0.3987 -0.0942,0.148799 -0.1791,0.303099 -0.254899,0.462499 -0.0758,0.159499 -0.1289,0.313599 -0.1591,0.462399 z"
         id="path733"
         inkscape:connector-curvature="0"
         style="clip-rule:evenodd;fill:#000000;fill-rule:nonzero;stroke-width:0.00999998;image-rendering:optimizeQuality;shape-rendering:geometricPrecision;text-rendering:geometricPrecision" />
      <path
         class="fil16"
         d="m -49.638388,77.030516 c -0.0554,0.085 -0.138999,0.1382 -0.251199,0.1595 -0.1121,0.0212 -0.2132,0.0212 -0.3031,0 0.1857,-0.403999 0.3633,-0.784198 0.533199,-1.140298 0.1696,-0.356099 0.2926,-0.624598 0.369,-0.805298 -0.0617,-0.0851 -0.1275,-0.1887 -0.1976,-0.310999 -0.0701,-0.1223 -0.1183,-0.2418 -0.1446,-0.3588 0.0443,-0.276499 0.1112,-0.510299 0.201,-0.701598 0.0899,-0.1914 0.1714,-0.3137 0.244599,-0.3668 0.0566,-0.0319 0.1428,-0.0266 0.2587,0.0158 0.1158,0.0426 0.226799,0.0985 0.332599,0.1675 0.1059,0.0692 0.1885,0.1409 0.2478,0.2154 0.0592,0.0743 0.0617,0.132799 0.0077,0.175399 -0.066,0.085 -0.1184,0.1833 -0.1571,0.295 -0.0386,0.111599 -0.0531,0.188699 -0.0436,0.231199 0.0049,0.0213 0.0923,0.0558 0.2625,0.1037 0.170099,0.0478 0.336299,0.077 0.498199,0.0877 0.0295,-0.0107 0.0824,0.024 0.158799,0.1036 0.0764,0.0798 0.159,0.175399 0.248,0.287099 0.0889,0.1116 0.1698,0.2233 0.242699,0.334899 0.073,0.1117 0.1143,0.1886 0.1238,0.2312 0.0024,0.0106 9e-4,0.0159 -0.0044,0.0159 -0.0054,0 -0.0067,0.0054 -0.0044,0.016 -0.128,0.329499 -0.220099,0.616599 -0.276799,0.861198 -0.0565,0.2444 -0.0933,0.459799 -0.1099,0.645799 -0.0166,0.186099 -0.0126,0.345499 0.0121,0.478499 0.0245,0.1328 0.0488,0.252499 0.0727,0.358699 0.0047,0.0213 0.0125,0.0319 0.0231,0.0319 0.0377,-0.0212 0.119299,-0.1196 0.244599,-0.294999 0.1253,-0.1754 0.2679,-0.38 0.428099,-0.613899 0.1599,-0.2339 0.3257,-0.478499 0.496699,-0.733699 0.1711,-0.254999 0.3215,-0.472999 0.450999,-0.653698 0.0164,-0.0213 0.0575,0.0079 0.1234,0.0877 0.0656,0.0798 0.094,0.146199 0.0846,0.199299 -0.0563,0.1276 -0.15,0.337499 -0.280799,0.629999 -0.131,0.292299 -0.2744,0.600499 -0.43,0.924898 -0.155499,0.324199 -0.314799,0.632599 -0.477599,0.924898 -0.162699,0.2924 -0.299099,0.502299 -0.408499,0.629999 -0.0331,0.0424 -0.1086,0.0371 -0.226799,-0.016 -0.1184,-0.0532 -0.2545,-0.1383 -0.4083,-0.2552 -0.153899,-0.116899 -0.311699,-0.263099 -0.473299,-0.438499 -0.161899,-0.175399 -0.297399,-0.364199 -0.406499,-0.566199 -0.0273,-0.0743 -0.021,-0.223199 0.0192,-0.446499 0.0401,-0.223299 0.0907,-0.459799 0.1513,-0.709698 0.0609,-0.2497 0.1277,-0.483699 0.201,-0.701599 0.0733,-0.217999 0.129299,-0.358899 0.168099,-0.422699 -0.0425,0 -0.1286,-0.0158 -0.257799,-0.0477 -0.1295,-0.032 -0.2693,-0.0745 -0.419599,-0.1277 -0.2503,0.446599 -0.4544,0.792199 -0.611999,1.036598 -0.1575,0.2446 -0.2611,0.3987 -0.3106,0.462499 z m 3.733793,-0.558099 c 0.0163,-0.0213 -0.0213,0.0477 -0.113,0.2073 -0.0916,0.1594 -0.208699,0.348099 -0.351099,0.566099 -0.1423,0.2179 -0.2932,0.433299 -0.452599,0.645899 -0.1597,0.212499 -0.3042,0.361499 -0.433999,0.446399 -0.0057,0.0213 0.0418,0.0081 0.142499,-0.0398 0.101,-0.0479 0.1638,-0.0877 0.1885,-0.1196 0.1837,-0.223299 0.366599,-0.496999 0.548899,-0.821398 0.182099,-0.3242 0.339199,-0.619199 0.470799,-0.884899 z m -1.885796,-0.797398 c 0.0117,-0.0425 -0.003,-0.0133 -0.0441,0.0877 -0.041,0.101 -0.0914,0.255099 -0.1512,0.462399 -0.0595,0.2073 -0.1209,0.454599 -0.1839,0.741599 -0.063,0.287099 -0.112999,0.584698 -0.149999,0.893098 0.0047,0.0213 0.0135,0.0132 0.0264,-0.024 0.013,-0.0371 0.0288,-0.085 0.0475,-0.1435 0.0188,-0.0585 0.0395,-0.1196 0.0624,-0.1833 0.0229,-0.0638 0.0415,-0.111699 0.0554,-0.143599 0.0118,-0.0426 0.0326,-0.1861 0.0627,-0.430599 0.03,-0.2446 0.1217,-0.664399 0.274799,-1.259798 z m -1.777797,0.462399 c 0.1624,-0.223299 0.2742,-0.411899 0.3351,-0.565999 0.061,-0.154299 0.0968,-0.231199 0.107599,-0.231199 l -0.0747,-0.0479 c -0.0515,0.1488 -0.111499,0.284399 -0.179499,0.406599 -0.0682,0.1222 -0.131,0.2684 -0.1885,0.438499 z m 0.473499,-2.503695 c 0.0118,-0.0425 -0.0016,-0.0185 -0.0397,0.0718 -0.0381,0.0904 -0.0821,0.202 -0.131999,0.334799 -0.0498,0.133 -0.0961,0.2578 -0.139,0.3748 -0.0427,0.116899 -0.0599,0.170099 -0.0519,0.159499 0.0471,-0.0745 0.0816,-0.122199 0.1035,-0.143499 0.0217,-0.0213 0.0405,-0.0558 0.0564,-0.1037 0.0158,-0.0478 0.0369,-0.1196 0.063,-0.2152 0.0264,-0.0957 0.073,-0.255199 0.139699,-0.478499 z"
         id="path735"
         inkscape:connector-curvature="0"
         style="clip-rule:evenodd;fill:#000000;fill-rule:nonzero;stroke-width:0.00999998;image-rendering:optimizeQuality;shape-rendering:geometricPrecision;text-rendering:geometricPrecision" />
      <path
         class="fil16"
         d="m -43.121101,76.153418 c -0.0563,0.1276 -0.149999,0.337499 -0.280899,0.629999 -0.1309,0.292299 -0.2743,0.600499 -0.429899,0.924898 -0.1557,0.324199 -0.3149,0.632599 -0.477699,0.924898 -0.1626,0.2924 -0.299,0.502299 -0.408599,0.629999 -0.0329,0.0424 -0.1085,0.0371 -0.2266,-0.016 -0.1185,-0.0532 -0.2545,-0.1383 -0.408399,-0.2552 -0.1539,-0.116899 -0.3116,-0.263099 -0.473399,-0.438499 -0.1617,-0.175399 -0.2972,-0.364199 -0.406299,-0.566199 -0.0169,-0.170099 0.0044,-0.417199 0.0645,-0.741498 0.0598,-0.324299 0.1357,-0.672499 0.2275,-1.044598 0.0917,-0.372099 0.1938,-0.733498 0.306199,-1.084298 0.1125,-0.350899 0.2139,-0.632599 0.3042,-0.845298 0.0143,-0.0319 0.0629,-0.0399 0.146199,-0.0238 0.0833,0.0158 0.1756,0.0477 0.2766,0.0956 0.1012,0.0479 0.1956,0.1009 0.283099,0.159399 0.0876,0.0586 0.1362,0.109 0.1457,0.1516 0.0025,0.0106 0.0011,0.0159 -0.0044,0.0159 -0.0052,0 -0.0067,0.0053 -0.0044,0.016 -0.088,0.2233 -0.1676,0.507499 -0.238699,0.853098 -0.0711,0.3455 -0.131,0.693699 -0.1795,1.044598 -0.0488,0.3508 -0.078,0.669799 -0.0879,0.956798 -0.0098,0.2871 -0.0029,0.483799 0.021,0.589999 0.0047,0.0213 0.0127,0.0319 0.0233,0.0319 0.0376,-0.0212 0.1191,-0.1196 0.2446,-0.294999 0.125099,-0.1754 0.267899,-0.38 0.427899,-0.613899 0.160099,-0.2339 0.325699,-0.478499 0.496799,-0.733699 0.171199,-0.254999 0.321599,-0.472999 0.450999,-0.653698 0.0165,-0.0213 0.0576,0.0079 0.1234,0.0877 0.0657,0.0798 0.0941,0.146199 0.0847,0.199299 z m -0.920598,-4.305791 c -0.0411,0.0532 -0.0971,0.135599 -0.167599,0.247199 -0.0705,0.1117 -0.1503,0.218 -0.2393,0.319 -0.0889,0.100999 -0.1782,0.188699 -0.267699,0.263099 -0.0896,0.0745 -0.1674,0.1063 -0.2337,0.0956 0.0563,-0.2231 0.1114,-0.438499 0.1659,-0.645799 0.0542,-0.207299 0.110199,-0.419899 0.167399,-0.637899 0.0572,-0.217999 0.1142,-0.449199 0.1709,-0.693698 0.0567,-0.2446 0.1141,-0.520899 0.1722,-0.829298 0.0036,-0.0318 0.0633,-0.0265 0.179099,0.0161 0.1159,0.0424 0.2381,0.1009 0.3665,0.1754 0.128199,0.0743 0.243299,0.1488 0.345099,0.2233 0.1018,0.0743 0.1404,0.127499 0.1156,0.159399 -0.1857,0.3083 -0.3245,0.542199 -0.4162,0.701599 -0.0918,0.1595 -0.158499,0.276499 -0.200199,0.350999 -0.0418,0.0743 -0.0703,0.1248 -0.0855,0.1514 -0.0153,0.0266 -0.0395,0.0611 -0.0725,0.103599 z m -1.105698,2.599495 c 0.0117,-0.0426 -0.0119,0.0185 -0.0704,0.183399 -0.0586,0.1648 -0.124,0.358699 -0.196,0.581999 -0.072,0.2233 -0.1397,0.430599 -0.203,0.621999 -0.0633,0.191299 -0.0962,0.281599 -0.0986,0.271099 0.0472,-0.0745 0.091,-0.151499 0.131499,-0.231299 0.0406,-0.0798 0.0842,-0.1807 0.1312,-0.3029 0.0469,-0.122399 0.0931,-0.271199 0.1388,-0.446599 0.0456,-0.175399 0.1011,-0.401399 0.166499,-0.677698 z m 0.0933,0.414599 c 10e-4,-0.0426 -0.0252,0.0186 -0.0783,0.183299 -0.0534,0.1649 -0.112599,0.3508 -0.177699,0.558299 -0.0647,0.2073 -0.1248,0.401299 -0.1799,0.581999 -0.0551,0.1807 -0.0838,0.2658 -0.0861,0.2552 0.0693,-0.1169 0.1535,-0.2978 0.2528,-0.542199 0.099,-0.2446 0.188799,-0.590199 0.269199,-1.036598 z m 0.923298,-4.544991 c 0.0011,-0.0425 -0.0197,0.0186 -0.0625,0.183399 -0.0426,0.1647 -0.0937,0.3509 -0.153499,0.558099 -0.0596,0.2073 -0.115,0.3988 -0.1658,0.574199 -0.051,0.1754 -0.0776,0.2578 -0.0801,0.2472 0.0695,-0.1171 0.1438,-0.2951 0.2227,-0.534299 0.0792,-0.2392 0.1588,-0.581999 0.239199,-1.028598 z m 0.510899,6.171487 c 0.0166,-0.0211 -0.0211,0.0479 -0.112699,0.2075 -0.0918,0.1594 -0.2087,0.348099 -0.3512,0.565999 -0.142399,0.217999 -0.293399,0.433199 -0.452799,0.645999 -0.1594,0.212499 -0.304099,0.361399 -0.433699,0.446399 -0.006,0.0213 0.0416,0.0079 0.1425,-0.0398 0.1008,-0.0479 0.163499,-0.0877 0.188199,-0.1197 0.184,-0.2232 0.3667,-0.496999 0.548999,-0.821198 0.1823,-0.3243 0.3391,-0.619299 0.470699,-0.885199 z"
         id="path737"
         inkscape:connector-curvature="0"
         style="clip-rule:evenodd;fill:#000000;fill-rule:nonzero;stroke-width:0.00999998;image-rendering:optimizeQuality;shape-rendering:geometricPrecision;text-rendering:geometricPrecision" />
    </g>
  </g>
</svg>
