<?xml version="1.0" encoding="UTF-8"?>
<!DOCTYPE svg PUBLIC "-//W3C//DTD SVG 1.1//EN" "http://www.w3.org/Graphics/SVG/1.1/DTD/svg11.dtd">
<!-- Creator: CorelDRAW 2020 (64 Bit) -->
<svg xmlns="http://www.w3.org/2000/svg" xml:space="preserve" width="47.3037mm" height="46.27mm" version="1.1" style="shape-rendering:geometricPrecision; text-rendering:geometricPrecision; image-rendering:optimizeQuality; fill-rule:evenodd; clip-rule:evenodd"
viewBox="0 0 4594.38 4493.99"
 xmlns:xlink="http://www.w3.org/1999/xlink"
 xmlns:xodm="http://www.corel.com/coreldraw/odm/2003">
 <defs>
  <style type="text/css">
   <![CDATA[
    .str0 {stroke:#666666;stroke-width:48.56;stroke-linecap:round;stroke-linejoin:round;stroke-miterlimit:22.9256}
    .str1 {stroke:#666666;stroke-width:48.56;stroke-linecap:round;stroke-linejoin:round;stroke-miterlimit:22.9256}
    .str2 {stroke:#666666;stroke-width:48.56;stroke-linecap:round;stroke-linejoin:round;stroke-miterlimit:22.9256}
    .fil0 {fill:none}
    .fil1 {fill:#666666;fill-rule:nonzero}
   ]]>
  </style>
 </defs>
 <g id="Camada_x0020_1">
  <metadata id="CorelCorpID_0Corel-Layer"/>
  <g id="_2781144069280">
   <g>
    <path class="fil0 str0" d="M3319.9 4257.88c-101.9,37.65 -303.12,112.58 -543.18,156.28 -240.07,43.72 -518.99,56.21 -768.78,55.51 -249.78,-0.69 -470.42,-14.57 -685.5,-54.81 -215.09,-40.24 -424.63,-106.85 -529.4,-140.15 -104.77,-33.3 -104.77,-33.3 -104.77,-33.3 0,0 0,0 4.17,-118.65 4.16,-118.65 12.48,-355.93 41.63,-566.17 29.14,-210.23 79.1,-393.4 100.6,-597.39 21.51,-203.98 14.57,-428.79 9.71,-666.77 -4.86,-237.99 -7.62,-489.15 -20.11,-701.47 -12.49,-212.32 -34.69,-385.77 -78.41,-566.86 -43.71,-181.09 -108.93,-369.81 -156.11,-486.37 -47.18,-116.57 -76.32,-160.98 -94.36,-185.96 -18.05,-24.97 -24.98,-30.53 -26.37,-33.3 -1.39,-2.77 2.78,-2.77 137.37,-51.34 134.61,-48.56 399.65,-145.71 532.18,-194.27 132.52,-48.57 132.52,-48.57 132.52,-48.57 0,0 0,0 58.97,43.02 58.97,43.02 176.93,129.06 333.74,177.62 156.8,48.57 352.47,59.67 555.06,18.74 202.6,-40.94 412.14,-133.91 516.91,-180.4 104.77,-46.48 104.77,-46.48 104.77,-46.48 0,0 0,0 126.97,51.34 126.97,51.35 380.92,154.03 507.89,205.38 126.97,51.34 126.97,51.34 126.97,51.34 0,0 0,0 -38.16,73.54 -38.16,73.55 -114.48,220.65 -172.08,384.39 -57.59,163.74 -96.45,344.13 -118.99,583.42 -22.55,239.29 -28.79,537.46 -24.97,807.98 3.82,270.5 17.7,513.35 49.52,845.52 31.83,332.17 81.6,753.67 106.15,965.21 24.54,211.53 23.85,213.09 22.2,214.04 -1.65,0.95 -4.25,1.3 -106.16,38.94z"/>
   </g>
   <g>
    <path class="fil0 str0" d="M469.02 318.46c-73.31,123.8 -146.62,247.59 -211.03,417.03 -64.41,169.44 -119.92,384.54 -157.38,531.62 -37.47,147.1 -56.9,226.2 -66.61,265.74 -9.71,39.55 -9.71,39.55 -9.71,39.55 0,0 0,0 111.7,43.71 111.71,43.72 335.12,131.14 446.83,174.84 111.7,43.72 111.7,43.72 111.7,43.72 0,0 0,0 15.27,-49.26 15.26,-49.26 45.78,-147.79 66.09,-207.19 20.31,-59.4 30.4,-79.67 40.49,-99.95"/>
   </g>
   <g>
    <path class="fil0 str0" d="M3602.38 344.83c27.06,30.36 54.13,60.71 116.22,184.13 62.1,123.42 159.24,339.89 225.16,529.65 65.91,189.76 100.6,352.82 117.96,434.34 17.34,81.53 17.34,81.53 17.34,81.53 0,0 0,0 -112.66,43.72 -112.67,43.71 -337.98,131.13 -450.64,174.84 -112.66,43.71 -112.66,43.71 -112.66,43.71 0,0 0,0 -21.66,-75.09 -21.66,-75.1 -64.97,-225.28 -108.28,-375.48"/>
   </g>
   <g>
    <path class="fil0 str0" d="M1271.09 24.28c25.17,71.99 50.32,143.98 115.99,222.29 65.66,78.32 171.81,162.97 271.73,219.86 99.91,56.9 193.58,86.03 297.31,98.17 103.72,12.15 217.51,7.28 324.71,-29.14 107.2,-36.42 207.81,-104.42 289.33,-173.46 81.53,-69.04 143.98,-139.12 185.86,-193.5 41.88,-54.37 63.21,-93.06 84.54,-131.74"/>
   </g>
   <g>
    <path class="fil0 str1" d="M3988.58 342.42c32.93,-39.86 65.85,-79.73 82.31,-99.66 16.46,-19.93 16.46,-19.93 16.46,-19.93 0,0 0,0 22.94,7.8 22.93,7.81 68.8,23.41 114.68,39.02"/>
   </g>
   <g>
    <path class="fil0 str1" d="M4087.35 222.82c129.51,383.38 259.02,766.77 388.53,1150.16"/>
   </g>
   <g>
    <path class="fil0 str2" d="M4354.94 1342.16c40.32,10.27 80.62,20.54 100.79,25.68 20.15,5.14 20.15,5.14 20.15,5.14 0,0 0,0 15.71,-17.33 15.71,-17.33 47.12,-51.97 78.52,-86.63"/>
   </g>
   <g>
    <path class="fil1" d="M3653.92 339.49c-12.65,4.45 -26.49,-2.11 -30.89,-14.64 -4.4,-12.53 2.27,-26.31 14.92,-30.76l15.97 45.4zm29.84 -61.51l15.97 45.4 -45.8 16.11 -15.97 -45.4 45.8 -16.11zm0 0c12.65,-4.45 26.49,2.11 30.89,14.64 4.4,12.53 -2.27,26.31 -14.92,30.76l-15.97 -45.4zm153.39 -2.96c-12.65,4.45 -26.49,-2.11 -30.89,-14.64 -4.4,-12.53 2.27,-26.31 14.92,-30.76l15.97 45.4zm29.85 -61.51l15.97 45.4 -45.81 16.11 -15.97 -45.4 45.81 -16.11zm0 0c12.65,-4.45 26.49,2.11 30.89,14.64 4.4,12.53 -2.27,26.31 -14.92,30.76l-15.97 -45.4z"/>
   </g>
   <g>
    <path class="fil1" d="M4152.34 1588.64c-12.65,4.45 -26.49,-2.11 -30.89,-14.64 -4.4,-12.53 2.27,-26.31 14.92,-30.76l15.97 45.4zm29.84 -61.51l15.97 45.4 -45.8 16.11 -15.97 -45.4 45.8 -16.11zm0 0c12.65,-4.45 26.49,2.11 30.89,14.64 4.4,12.53 -2.27,26.31 -14.92,30.76l-15.97 -45.4zm153.39 -2.96c-12.65,4.45 -26.49,-2.11 -30.89,-14.64 -4.4,-12.53 2.27,-26.31 14.92,-30.76l15.97 45.4zm29.85 -61.51l15.97 45.4 -45.81 16.11 -15.97 -45.4 45.81 -16.11zm0 0c12.65,-4.45 26.49,2.11 30.89,14.64 4.4,12.53 -2.27,26.31 -14.92,30.76l-15.97 -45.4z"/>
   </g>
  </g>
 </g>
</svg>
