<?xml version="1.0" encoding="UTF-8"?>
<!DOCTYPE svg PUBLIC "-//W3C//DTD SVG 1.1//EN" "http://www.w3.org/Graphics/SVG/1.1/DTD/svg11.dtd">
<!-- Creator: CorelDRAW 2020 (64 Bit) -->
<svg xmlns="http://www.w3.org/2000/svg" xml:space="preserve" width="60.5071mm" height="54.8065mm" version="1.1" style="shape-rendering:geometricPrecision; text-rendering:geometricPrecision; image-rendering:optimizeQuality; fill-rule:evenodd; clip-rule:evenodd"
viewBox="0 0 3967.13 3593.38"
 xmlns:xlink="http://www.w3.org/1999/xlink"
 xmlns:xodm="http://www.corel.com/coreldraw/odm/2003">
 <defs>
  <style type="text/css">
   <![CDATA[
    .str0 {stroke:#666666;stroke-width:32.78;stroke-linecap:round;stroke-linejoin:round;stroke-miterlimit:22.9256}
    .str1 {stroke:#666666;stroke-width:32.78;stroke-linecap:round;stroke-linejoin:round;stroke-miterlimit:22.9256;stroke-dasharray:32.782383 98.347149}
    .fil0 {fill:none}
   ]]>
  </style>
 </defs>
 <g id="Camada_x0020_1">
  <metadata id="CorelCorpID_0Corel-Layer"/>
  <g id="_2781134892272">
   <g>
    <path class="fil0 str0" d="M16.39 3576.98c1311.45,0 2622.9,0 3934.35,0"/>
   </g>
   <g>
    <path class="fil0 str0" d="M1112.38 3576.98c29.98,-85.24 59.96,-170.49 80.57,-383.6 20.61,-213.11 31.84,-554.09 30.91,-828.56 -0.94,-274.47 -14.05,-482.43 -20.61,-586.4 -6.56,-103.98 -6.56,-103.98 -6.56,-103.98 0,0 0,0 -13.11,79.16 -13.11,79.16 -39.35,237.46 -68.85,348.94 -29.51,111.48 -62.29,176.11 -78.69,208.43 -16.39,32.32 -16.39,32.32 -16.39,32.32 0,0 0,0 1.88,59.48 1.88,59.49 5.62,178.45 -14.05,333.02 -19.68,154.57 -62.77,344.73 -93.68,467.91 -30.91,123.18 -49.65,179.39 -53.39,218.27 -3.75,38.87 7.49,60.42 18.73,83.37 11.24,22.95 22.48,47.31 28.1,59.49 5.62,12.18 5.62,12.18 5.62,12.18 0,0 0,0 -49.17,0 -49.18,0 -147.54,0 -196.72,0 -49.18,0 -49.18,0 -49.18,0 0,0 0,0 1.88,-9.37 1.88,-9.36 5.62,-28.1 12.65,-48.24 7.02,-20.14 17.33,-41.69 8.43,-133.49 -8.9,-91.8 -37,-253.86 -38.41,-423.88 -1.41,-170.02 23.89,-348 44.49,-453.86 20.61,-105.85 36.53,-139.57 44.5,-174.7 7.96,-35.13 7.96,-71.66 8.43,-164.87 0.47,-93.21 1.4,-243.09 20.13,-380.32 18.74,-137.23 55.27,-261.82 76.35,-356.9 21.07,-95.08 26.7,-160.65 38.41,-244.03 11.7,-83.37 29.5,-184.54 51.99,-253.39 22.48,-68.85 49.65,-105.38 67.91,-125.52 18.27,-20.14 27.64,-23.89 58.08,-36.07 30.44,-12.18 81.96,-32.78 150.35,-51.05 68.38,-18.27 153.62,-34.19 238.4,-53.87 84.78,-19.67 169.08,-43.09 222.01,-68.38 52.93,-25.29 74.48,-52.46 89,-97.89 14.52,-45.43 22.01,-109.13 19.67,-148.01 -2.34,-38.87 -14.52,-52.92 -29.98,-67.91 -15.46,-14.99 -34.19,-30.91 -50.58,-58.55 -16.39,-27.64 -30.44,-66.98 -37.47,-101.64 -7.02,-34.66 -7.02,-64.64 -7.02,-94.62"/>
   </g>
   <g>
    <path class="fil0 str0" d="M2371.39 16.39c6.56,36.53 13.11,73.07 -5.15,123.66 -18.27,50.58 -61.36,115.22 -85.48,155.74 -24.12,40.51 -29.27,56.9 -31.62,81.96 -2.34,25.06 -1.88,58.78 12.88,99.06 14.75,40.28 43.79,87.12 125.99,128.34 82.2,41.21 217.56,76.81 320.13,103.51 102.58,26.7 172.36,44.5 235.36,75.64 62.99,31.15 119.2,75.64 162.76,213.58 43.56,137.94 74.47,369.31 97.19,533.71 22.72,164.4 37.23,261.83 50.35,372.83 13.11,111.01 24.82,235.59 31.38,315.92 6.56,80.33 7.96,116.4 13.11,147.54 5.15,31.15 14.05,57.38 24.82,111.47 10.77,54.1 23.42,136.07 34.66,280.32 11.24,144.26 21.07,350.82 22.95,497.41 1.88,146.6 -4.22,233.25 -7.26,276.58 -3.05,43.33 -3.05,43.33 -4.45,43.33 -1.4,0 -4.22,0 -51.28,0 -47.08,0 -138.41,0 -183.14,0 -44.73,0 -42.86,0 -43.33,0 -0.47,0 -3.28,0 3.04,-13.81 6.33,-13.82 21.78,-41.46 32.09,-68.38 10.3,-26.93 15.45,-53.16 6.79,-105.85 -8.66,-52.69 -31.14,-131.85 -59.01,-230.68 -27.87,-98.83 -61.12,-217.33 -80.32,-355.49 -19.2,-138.17 -24.36,-296.02 -27.16,-381.26 -2.81,-85.25 -3.28,-97.89 -9.61,-116.63 -6.32,-18.74 -18.5,-43.56 -48.94,-147.54 -30.44,-103.98 -79.16,-287.11 -104.44,-384.07 -25.29,-96.96 -27.17,-107.73 -28.11,-106.33 -0.94,1.41 -0.94,14.99 -4.92,246.84 -3.98,231.84 -11.94,681.95 -12.18,950.57 -0.24,268.61 7.26,355.73 22.72,444.25 15.45,88.52 38.87,178.45 62.29,268.38"/>
   </g>
   <g>
    <path class="fil0 str0" d="M1167.2 2444.45c-15.46,10.3 -30.91,20.61 -36.3,34.42 -5.38,13.81 -0.7,31.15 26.93,52.22 27.64,21.08 78.22,45.9 157.14,65.81 78.92,19.91 186.18,34.89 286.41,44.73 100.23,9.84 193.44,14.52 286.64,19.21"/>
   </g>
   <g>
    <path class="fil0 str0" d="M2772.63 2442.22c14.87,4.22 29.74,8.43 43.68,15.98 13.93,7.55 26.93,18.44 26.39,33.1 -0.54,14.65 -14.61,33.08 -79.03,55.87 -64.42,22.8 -179.17,49.96 -303.05,68.93 -123.88,18.97 -256.9,29.75 -389.92,40.52"/>
   </g>
   <g>
    <path class="fil0 str0" d="M2106.52 2724.07c-14.29,-21.77 -28.57,-43.55 -35.71,-54.1 -7.15,-10.54 -7.15,-9.83 -0.94,-19.67 6.2,-9.83 18.61,-30.21 31.03,-50.58"/>
   </g>
   <g>
    <path class="fil0 str0" d="M1848.68 2727.58c13.12,-22.25 26.23,-44.49 32.79,-55.62 6.56,-11.12 6.56,-11.12 6.56,-11.12 0,0 0,0 -0.59,-0.03 -0.59,-0.03 -1.77,-0.09 -9.26,-11.91 -7.49,-11.83 -21.3,-35.42 -35.11,-59.01"/>
   </g>
   <g>
    <path class="fil0 str1" d="M1247.29 2425.48c117.09,-12.18 234.18,-24.35 351.28,-32.08 117.09,-7.73 234.18,-11.01 357.85,-11.61 123.66,-0.61 253.9,1.46 385.23,10.46 131.33,9 263.77,24.92 396.2,40.85"/>
   </g>
  </g>
 </g>
</svg>
